<?xml version="1.0" encoding="UTF-8"?>
<svg id="_Слой_1" data-name="Слой 1" xmlns="http://www.w3.org/2000/svg" viewBox="0 0 1215.35 595.28">
  <defs>
    <style>
      .cls-1, .cls-2 {
        fill: #04539f;
      }

      .cls-3 {
        fill: #e1dfdd;
      }

      .cls-3, .cls-4, .cls-5, .cls-6, .cls-7, .cls-8, .cls-2, .cls-9, .cls-10 {
        fill-rule: evenodd;
      }

      .cls-4 {
        fill: #f6f6f1;
      }

      .cls-11 {
        stroke: #719d9c;
      }

      .cls-11, .cls-12 {
        stroke-miterlimit: 22.93;
        stroke-width: .27px;
      }

      .cls-11, .cls-12, .cls-13 {
        fill: none;
      }

      .cls-5 {
        fill: #bab7b3;
      }

      .cls-6 {
        fill: #c6c6c5;
      }

      .cls-7 {
        fill: #848585;
      }

      .cls-8 {
        fill: #3c7fc1;
      }

      .cls-12 {
        stroke: #c9dddc;
      }

      .cls-9 {
        fill: #d8d8d8;
      }

      .cls-10 {
        fill: #4b4a49;
      }

      .cls-13 {
        stroke: #04539f;
        stroke-miterlimit: 10;
        stroke-width: 2.83px;
      }
    </style>
  </defs>
  <g>
    <path class="cls-9" d="M1128.16,467.31c-.57-1.5-1.47-1.92-1.44-3.54.03-1.65,1.27-2.53,1.52-3.98.35-2.04-.63-2.66-1.13-3.96-1.05-2.73,0-2.52.82-4.48,1.59-3.78-2.39-4.9-.84-8.1.81-1.69,1.61-1.77,1.12-4.3l-2.03-3.72-38.36-.05-.17-4.28h39.53c.06-1.82.38-2.32-.43-3.8l-39.13-.14c-.72-12.46-.09-26.68-.09-39.2,0-52.09-.47-104.19,0-156.28.05-5.35-2.24-6.32-6.9-12.38l-25.74-33.1c-5.73-7.26-10.68-14.33-17.15-22.18-4.05-.29-4.65.51-6,3.21-2.3,4.62-3.9,1.37-6.27,3.67-2.23,2.17-.1,4-4.79,4.87-4.85.9-2.61,2.42-4.79,4.87-1.78,1.99-4.79-.12-6.29,3.06-2.6,5.5-.98,2.36-5.88,4.2-3.08,1.16-1.06,4.04-4.16,5.16-3.88,1.4-4.5-.64-5.71,4.51,1.22,1.06,5.02,5.95,5.27,7.49-1.52,1.63-30.82,21.65-31.36,21.7-2.43-.61-2.83-1.89-6.24-2.51-3.14-.57-5.54.48-8.13.81-1.81-4.66-12.38-20.38-15.75-25.91-.86-1.42-1.72-2.63-2.68-4.23-1.76-2.92-.24-2.35-3.06-4.24-1.64-1.1-29.83-19.88-31.04-21.36-1.76-2.15.66-1.35-1.35-2.47-2.44.03-5.89.41-7.88-.25-.64-1.29-.45-2.25-.43-4.04.05-4.43.46-9.57-.1-13.89l-3.6-.23c1.49-1.66,3.04-2.58,4.77-3.86,2.68-1.99,2.24-2.14,6.81-2.11,17.57.11,35.32.42,52.86,0,2.75,3.14,5.41,6.86,7.82,10.08,4.53,6.07,19.17,25.97,23.47,30.69,1.58-.35,1.28-1.3,3.06-1.75,1.56-.39,2.71,0,3.78-.94,2.1-1.84.07-4.16,4.72-4.92,4.75-.78,2.62-1.28,4.88-4.34,1.85-2.5,4.96-.32,6.38-2.97,1.92-3.58.9-3.51,5.41-4.25,3.33-.55,2.17-3.76,4.33-5.04,3.01-1.79,3.98.95,6.06-3.3,1.99-4.05,2.11-2.16,6.17-3.45.09-1.57-1.24-2.64-2.22-3.92l-8.91-11.69c-7.94-10.49-16.4-20.9-23.8-31.16-7.54-10.46-15.49-20.23-23.59-30.94-3.16-4.17-34.38-44.24-35.51-46.89-1.68.68-1,.94-3.47,1.53-7.26,1.74-1.04,4.42-8.21,5.97-3.71.8-2.77,3.27-4.51,4.84-2.34,2.1-4.22-.12-6.1,3.26-3.02,5.42-1.12,2.15-5.7,3.93-2.85,1.11-1.52,4.27-4.13,5.15-4.46,1.49-3.81-.33-5.67,3.67-1.83,3.93-3.77,1.56-6.51,3.52-.08,2.3,4.97,7.58,6.59,9.7,2.88,3.75,4.67,6.16,7.2,9.55l39.76,52.09c1.05,1.32,3.11,3.2,3.39,4.88h-54.4c-4.06-.04-3.78.38-6.14,2.22-2.77,2.17-6.23,4.76-8.76,6.69-3.08,2.35-9.46,1.97-13.48,2.36-9.75.96-19.34,1.64-29.09,2.75-18.9,2.15-38.44,3.39-57.56,5.58-18.85,2.16-38.42,3.76-57.54,5.56-19.12,1.8-38.08,3.85-57.54,5.55-20.47,1.78-41.68.95-62.26.95-4.88,0-121.09.55-126.22-.12-.58-6.98-.25-28.13-.1-36.09.08-4.21-2.72-6.27-6.53-11.4-2.5-3.37-5.14-7.04-7.85-10.59l-23-31.11c-2.08-2.88-5.69-8.57-8.03-10.41-1.73,1.32-3.13,1.99-4.59,3.15l-38.86,32.81c-3.52,2.98-23.17,20.13-26.1,21.74-1.64-.89-2.9-2.69-4.22-4.12-1.55-1.69-2.42-2.65-3.87-4.28-2.47-2.77-5.06-5.44-7.85-8.45l-11.71-12.75c-1.47-1.53-2.63-3.25-4.12-4.19-2.38.55-63.25,51.58-72.01,58.65l-26.15,21.51c-1.19.94-6.26,4.66-6.21,5.84.04.81,29.26,36.33,32.27,39.91l9.44,11.57c.97,1.12.98.81,1.33,2.16h-112.57s-.05,50.99-.05,50.99c8.39.87,37.24-1.16,42.32.35l.02,67.61-1.61.86-.05,7.53c-2.87,1.73-15.91,9.36-18.28,10.17-.43-.58.02.3-.51-.89-.08-.19-.29-.77-.35-.95-.22-.67-.37-1.27-.57-1.94l-3.5-12.38c-5.08-16.19-9.25-33.22-14.07-49.15-2.14-7.07-17.64-63.69-18.92-65.16-1.78-2.03-5.45-2.09-8.03,1.96-6.59.08-4.54-2.78-9.16,2.4-2.65.24-3.72-.7-5.41-.52-1.84.19-2.41,1.74-3.47,2.48-2.32,1.62-2.89.23-5.17.12-2.01-.09-2.36.98-3.7,2.12-3.65,3.11-4.19-2.14-8.94,2.22-3.76,3.45-4.7-1.45-8.86,1.97-1.13,1.69,5.08,20.42,5.89,23.49,1.9,7.16,4.08,15.21,6.55,23,4.74,14.93,8.52,31.24,13.18,46.06,6.79,21.59,13.39,46.79,19.79,69,1.17,4.06,6.34,20.3,6.38,22.82l-36.12.07c.25,3.24,1.08,2.02,1.65,4.15.58,2.2-.55,2.94-1.3,4.22-2.03,3.48,2.37,3.93.6,7.87-2.96,6.56.08,3.91.08,8.01,0,2.33-3.23,4.23-.32,8.36l35.71.18.03,62.11c3.98-1.34,2.6-2.83,6.9-.39,3.46,1.96,3.88-1.18,6.74-1.23,2.96-.05,3.51,3.21,7.3.92,4.36-2.64,4.39,1.06,7.22.9,2.89-.16,2.31-3.28,6.95-.92,4.47,2.27,3.33-.54,6.91-.8,2.83-.2,3.63,3.17,7.39.97,4.24-2.48,3.68.25,7.45.67v-62.22s451.68-.01,451.68-.01l.02,61.85c3.51.81,2.71-3.03,7.01-.59,2.55,1.44,4.95.62,6.89-1.12l.08-59.96,7.76-.2.02,60.92c1.43-.12,1.61-.75,3.36-.13,1.29.45,1.49,1.23,3.31,1.33,3.91.21,2.32-2.37,7.33-.99v-61s351.24-.09,351.24-.09l.04,55.51c1.67-.36,2.11-1.65,4.14-1.65,2.19,0,2.62,1.46,4.71,2.07,2.56-.58,3.04-2.72,5.89-1.92,2.39.67,2.64,2.7,5.45,1.14,2.8-1.55,2.83-2.11,5.86-.21,3.33,2.09,2.83.07,5.68-.82,3.33-1.04,3.72,1.65,5.89,1.68,2.43.04,2.45-2.71,5.9-1.75,2.06.57,2.87,2.68,5.41,1.07,4.04-2.57,2.8-1,6.26-.11v-54.96s40.63-.73,40.63-.73ZM381.61,113.42c.74-1.42,1.09-1.45,2.64-2.68,7.97-6.27,39.48-33.93,41.73-34.72,1.96,1.66,4.55,5.73,6.39,8.24,2.53,3.46,17.77,23.09,18.2,25.45l-2.26,1.66c-1.38-.52-3.55-3.45-4.42-4.73-1.36-1.98-2.27-3.4-3.74-4.78-2.19.54-3.67,2.74-5.29,4.13-24.37,20.95-50.81,42.5-75.59,63.48l-80.97,67.75c-1.92-.96-7.97-9.15-9.42-10.92-1.62-1.99-8.11-9.33-8.81-11.4l18.02-14.97c7.28-6.37,52.51-44.4,53.87-44.78l14.76,17.3c2.18-.53,2.07-1,3.9-2.59l9.13-7.63c4-3.63,8.31-6.82,12.19-10.11l24.4-20.67c-1.43-2.99-13.52-15.15-14.73-18.03ZM313.19,154.93l-2.05,1.5-.18.54.95,1.42c.4.59.42.61.93,1.22,1.17,1.39,1.3,1.19,1.76,3-2.1,1.13-5.22,4.09-7.37,5.93-14.9,12.8-32.41,26.74-46.91,39.36-4.55,3.96-3.63,4.17-10.93-5.44-3.15-4.15-19.12-22.94-19.63-24.64,1.02-1.53,15.79-13.31,18.62-15.75,2.83-2.44,6.76-5.44,9.46-7.72,3.41-2.88,6.2-5.13,9.68-7.92,3.51-2.81,6.56-5.59,9.39-7.79l18.85-15.49c2.05-1.67,8.23-7.29,10.22-7.77,1.75,2.37,4.41,5.2,6.21,7.78,1.25-.52,2.61-1.76,3.33-2.72-1.41-1.96-5.55-5.92-6.39-8.43,2.97-1.8,14.86-13.06,17.26-13.49,2.86,2.82,27,29.05,27.58,30.36-.23.4-33.42,29.18-35.73,29.97-2.73-1.46-2.36-3.95-5.04-3.91ZM373.84,205.88c-3.37-3.28-2.71-3.22-4.76-5.5l-10.98-13.23-2.14-2.84c-.91-1.09-1.42-1.63-2.15-2.62.45-1.51,2.07-2.57,3.59-3.78,1.37-1.1,2.49-2.09,3.74-3.1l23.12-19.41c5.04-4.27,10.05-8.31,15.41-12.92,1.79-1.54,14.16-12.19,15.59-12.81,2.45,1.98,2.56,3.51,4.33,3.95l3.03-2.47c-.92-2.37-2.44-2.82-3.41-4.84,2.11-2.38,11.56-9.83,15.22-13.02,1.9-1.65,3.47-3.47,5.29-3.85,3.1,2.1,5.89,8.28,9.02,10.37,4.11-2.06,2.62-3.68,6.33-4.91l6.91,9.36c4.7,6.28,5.39,5.77,5.44,10.64.09,9.53.74,23.1-.11,32.3h-18.71c1.15-2.64,4.84-3.4,5.86-6.1-1.33-1.69-2.73-3.13-4.22-4.94-1.26-1.54-2.66-3.3-4.07-4.84-1.69.68-32.74,26.1-36.6,29.42-2.94,2.53-10.43,7.77-12.03,9.98.85,3.04,5.03,5.33,5.97,8.16-1.43,1.39-18.51,16.32-21.13,17.33l-8.53-10.31ZM810.93,172.08c-.05-3.71-.2-7.82-.07-11.49.1-2.88.18-2.54,3.18-2.68,4.46-.22,22.44-2.53,23.77-1.98-5.26,2.58-23.48,15.55-26.88,16.16ZM668.52,172.23c.85-.51,51.89-5.68,55.77-5.49l-27.52,9.72c-8.41,2.79-5.54,2.82-14.33.36-.57-.16-13.51-3.84-13.69-4.4-.04-.12-.16-.12-.23-.19ZM646.32,173.42l.06,13.57-14.91.17c-.16-1.8-.64-13.04.46-13.67.54-.3,12.9-.2,14.38-.07ZM619.05,203.74l9.28.14.23,15.4-9.52.06.03,15.57,9.41.05.06,22.06-22.09.03c-.6-3.47-.35-82.22.07-83.7h21.87s.16,15.43.16,15.43l-9.48.04v14.91ZM649.24,173.63c3.51-.95,16.53,3.65,20.38,4.89l19.64,5.99.08,72.43-39.92.14-.21-20.9,9.99-.15.04-15.75c-2.83-1.2-7.1.38-9.72-.66-1.09-2.91-.25-8.23-.26-11.73l8.79-.19.05-15.4c-2.5-.38-4.24.05-6.34-.07-.53-.03-.71-.03-1.24-.14-1.49-.31-.66-.14-1.1-.37l-.19-18.09ZM483.06,200.61l2.21-.19v-5.92s52.4-.1,52.4-.1l.03-5.44,10.05-.18.07,5.64,36.19-.04v17.27s.06,18.13.06,18.13c-1.23.78-3.86.44-5.88.52l.4,2.34,9.2.04.09-16.66c.13-1.22.19-.71,1.38-1.54.06-.04.21-.1.29-.18l-.02-2.63,11.69-.09c.04,6.24.49,42.32-.22,45.45l-57.77.04v18.29s-28.2.05-28.2.05l-.38,2.19-30.44-.02-.28-2.29-10.36.12-.06-101.96,57.34-.16.12,18.89h-48.04s.1,8.42.1,8.42ZM568.36,173.43l32.81-.11c.41,9.11-.02,20.61.09,30.26,0,.5.05,1.72,0,2.16l-.59,1.78-10.91.17c-.66-3.61.71-2.84-1.32-4.24l-.53-11.15-19.48-.13-.08-18.74ZM323.99,213.82l.63.55c1.24-1.31,3.7-3.24,5.14-4.4,2.85-2.29,13.12-11.64,15.51-13.14,1.77,1.31,5.74,6.25,7.21,8.18,1,.68,3.35,3.48,4.32,4.65,1.29,1.55,3.49,3.34,3.92,5.09-1.3,1.09-4.72,3.82-5.3,4.68-1.04,2.92-8.04,7.76-10.32,9.72l-26.56,22.81c-2.24,1.9-4.95,3.83-5.08,5.65,1.4.62,1.75-.07,3.08-1.18,1.32-1.11,2.02-1.68,3.26-2.75,1.76-1.52,4.99-4.64,6.58-5.12,1.4.88,7.19,7.67,7.58,8.7l-11.54,9.79c-2.02,1.7-10.76,9.72-12.36,9.4-1.11-.52-12.11-14.43-14.2-17.01-2.17-2.69-4.72-5.63-6.97-8.49-8.66-10.99-8.79-8.11-2.88-13.03l29.47-24.98c1.99.91.59.84,2.31,1.69l2.38-1.99c-.31-1.69-.65-.83-1.12-2.66,5.2-3.92,29.86-25.45,32.21-26.67,1.37.69,1.02.63,2.03,1.95l23.32,28.18c1.29,1.49,2.97,2.93,3.55,4.75-.82,1.31-18.37,16.08-19.89,16.72-1.32-1.16-6.76-7.16-7.41-8.57.97-1.89,9.72-8.06,11.63-10.3-.35-1.34-6.89-8.67-8.54-10.7l-8.99-10.68c-2.14.71-9.15,7.29-11.66,9.29-1.98,1.58-3.76,3.17-5.86,4.86-1.18.95-1.79,1.5-2.79,2.36-.87.74-2.32,1.71-2.68,2.66ZM780.44,208.31l-.14,6.12-48.16-.03c-.62,5.64-.07,34.99-.1,45.44,0,1.74.35,2.1-.71,2.77l-5.35.05.32,6.1,20.36.03.14,88.13,80.37.05-.11,9.68,13.06.15-.31-103.61-5.33.04-.1,6.09c-3,.06-22.64.58-24.67-.43-.61-.3-4.56-3.24-4.78-3.5l-.09-14.6c1-1.16,4.2-3.42,5.54-3.75l.49-3.12.06-17.31-.03.14c-7.15-7.11-5.48-.44-5.6-19.33-.02-2.43-.33-2.82,1.16-4.19.83-.77,1.65-1.45,2.53-2.18,1.42-1.18,1.33-1.62,1.96-3.29l.07-17.98,41.79-25.72c1.38-.23,7.49-.69,8.74-.58l.15,3.74,6.41.02c.87,1.69,4.19,5.93,4.53,7.03.45,1.43.23,32.09.16,34.59h12.77s.04,22.09.04,22.09l-12.83.12.02,9.94c1.84.08,3.94.27,5.57-.38v-5.72c2.91-.01,9.93-.48,12.29.3v58.03s7.65,0,7.65,0c.43,2.5.17,6.22.15,8.79-.02,4.01,1.01,3.93,3.14,5.99-1,2.03-2.87,2.33-3.14,4.69-.25,2.14.07,5.62-.06,8.02l-5.15.16c-.57,1.43-.36,4.1-.28,6.25l-7.36.07c-.88.44.07-.46-.97,1.19-.04.07-.1.23-.18.32h-11.64s-.03,69.44-.03,69.44l-1.52,2.27c-2.51,3.23-2.42,4.74-5.22,4.91-.73,2.26-2.13,2.9-2.93,4.96l22.87.04.24,26.53c-15.75.78-33.44.07-49.41.07-47.87,0-97.37-.44-145.12.05-3.46.04-1.89-.08-2.87-.45-.1-.04-.25-.11-.37-.18l2.37-.64c4.44-.3,14.32.43,19.6-.02l.16-13.73,133.09-.05c.1-3.41.1-7.07.08-10.49-.02-3.89-3.5-5.45-3.85-6.83.15-3.01.4-12.41-.2-14.92l-12.24.07c-.94,3.21.95,14.48-.96,16.24-2.08-.59-1.12-2.56-1.22-5.05-1.49-.07-2.03.19-2.94-.38l-.84.48.03,4.22-8.07.03-.22,3.28c-1.89.2-1.66.51-2.69,1.54-1.04,1.02-1.71,1.05-2.51,1.82l-.59,2.52c-4.02,1.45-3.39,4.36-11.88,5.57-5.42.77-11.04-.34-14.67-2.9-3.11-2.2-.99-2.54-6.34-2.47l-26.62-.02c-.4.56-.2.21-.54,1.09-.14.36-.1.6-.32,1.15h-6.87c-.02-1.24-.35-1.65-.86-2.22l-32.37.51.19,5.55-11.59.08-.19-6h-4.47s.05-.95.05-.95l-5.38-.19-.12,6.11-12.3.17c-1.06.66-2.27,3.07-3.26,4.52-1.32,1.94-1.36,3.55-4.46,3.6-.32,1.64-2.65,5.03-3.7,5.88-2.1,1.05-10.67-1.12-11.54,1.15,2.35,2.45,22.64-1.12,24.87,1.29-.93,1.13-8.96.58-10.85.58-3.86,0-7.74-.03-11.6-.02-3.34,0-2.48.21-4.71,1.22-2.54,1.14-2.85.13-4.56-.68-2.51-1.19-9.44.56-11.02-1.1,1.22-1.49,5.95-.2,8.27-.67l1.11-.42c.1-.04.24-.11.34-.2-.85-1.56-.08-.97-5.75-.95-2.11,0-4.2,0-6.3-.07l-6.55-12.33c-.24-.45-.18-.41-.45-.84-.05-.08-.12-.19-.17-.26l-17.71-.91c.08-2.23.68-6.4-.58-7.7l-130.96-.04-.03-7.21h11.63c1.69.04,2.8.23,3.94-.54l-6.22-.07.08-7.68-3.82-.1-.1-14.38h3.96s-.17-5.3-.17-5.3c1.14-.47.39,0,1.81-.85l3.84-.02.02-4.7-.28-.42.95-.31-.03-3.31,65.27-.04v-47.1s-4.65-.19-4.65-.19c.66-2.42.72-.39.69-5.3l.13-20.02,3.73-.13.05-15.43,50.13-.1.18,9.41,5.81.03.26-9.26,25.52-.18.17,9.4h12.55s.25-9.26.25-9.26l51.12-.21c.28-3.74-.52-7.91.35-11.5l-5.08-.17-.18-38.15,5.06-.14-.22-4.98-4.76.06-.11-31.73c.5-1.13.09-.59,1.14-1.18.34-.19,1.4-.47,1.87-.63l25.52-8.84c4.75-1.53,9.62-3.32,14.33-4.95,4.3-1.49,11.28-3.14,16.7-2.7l.2,19.04,18.42-.13-.1-20.95,10.62-.81-.08,21.76c1.86.04,2.04-.39,2.32,1.13.11.63,0,3.42-.01,4.27,0,2.26.56,5.82-.32,7.69l-.23,12.48-5.42.03ZM631.4,190.84c2.13-.65,12.31-.49,14.81-.18l.17,15.2-14.94.15-.05-15.17ZM891.62,199.11l8.55-.32-.06-24.28c2.67.54,5.97,3.53,8.13,4.91,3.94,2.52,20.68,13.45,22.39,16.3l14.74,23.83c1.3,2.13,4.14,6.32,4.83,8.08-3.15,5.34-3.16,3.82-2.94,12.02l-20.94,14.76c-3.38,2.34-19.39,14.01-21.05,14.38l-.05-47.6-13.91-.17c-.22-4.09-.8-19.37.31-21.9ZM631.38,209.44l15.12-.06-.03,15.12-14.99-.12-.09-14.94ZM437.24,226.69c-3.35,5.94-5.72,10.93-8.83,16.63l-9.09,17.1-27.76-.03-.06,12.19-14.42.05-.02,48.75-60.21.04-.02,3.44h59.99s.13,3.85.13,3.85c1.19.38.69,12.7.7,14.84l.02,14.99c-.42.21-.03.16-1.08.31l-4.72.28.23,5.42-25.79.18.06,4.33-7.68.1-.03-4.47-23.91.03-.18-9.78-4.39-.2v-8.68s2.73-.39,2.73-.39l.21-1.84-7.43.22-.07,7.38-38.89.05c-4.29.02-3.3.21-5.06-.47-.11-.04-.26-.11-.38-.19l-.19-68.08,10.84-.08.17-1.38,40.9-.02c.5-1.85,5.8-5.79,7.53-7.14l87.3-73.25c2.3-1.97,30.04-26.05,32.23-26.51v25.72c1.81.55,2.16.46,4.03.03l-.16-5.63,7.21-.15.19-21.63,14.19-.04c1.11.18-.38-.24.83.21,1.19.43.5,0,1.13.68-.52,6.72-.04,38.25-.04,47.64v41.64c.01,4.96.26,3.54-.36,5.48-.03.1-.09.26-.16.37l-4.44.09-.56-1.21c-.18-.49.11-.24-.29-1.07l-27.06.04-.07-6.09h-9.99c.62-3.49,15-27.79,16.89-32.69-1.42-1.29-1.78.48-3.53-2l-.63.94ZM970.48,229.86c1.92-.91,6.09-4.02,7.93-5.36,3.23-2.37,22.68-15.94,24.14-16.09l27.18,34.96c3.43,4.44,2.59,2.63,2.59,9.58,0,7.87.48,17.37-.02,25.02l-45.2.18c-1.06-2.69-7.71-13.1-9.54-16.09l-10.07-16.42c1.31-2.64,2.67-2.78,3.65-6.45,1.11-4.2-.17-5.5-.65-9.33ZM951.11,237.92c-1.14-5.07,2.52-9.37,6.48-10.09,4.87-.89,9.1,2.52,9.89,6.41,2.22,11.03-14.06,13.89-16.36,3.68ZM244.33,315.01v10.79s-.03,26.67-.03,26.67l-10.7-.1c-1.39,1.11-.1-.36-.84,1.03-.02.03-.34,1.15-.4,1.32l-29.29.1-.08-4.48-1.44-.24-.2-15.58-3.31-.32c.14-4.87.03-9.84.04-14.71,0-5.75.11-7.5,3.4-11.7l-.25-12.1c.44-2.58.57-16.48-.18-18.27-3.4-1.26-35.48.22-42.6-.36l.15-2.79-2.82-.02-.04-22.47,2.66-.31.08-15.32,22.81-.08c2.95.54-2.52-.83.8.22l.91,6.2-22.21.22-.03,9.09-.02,18.35,102.67.19,7.55.12.17-27.8-25.55.04-.1-6.55,24.25-.13c1.5,1.16,3.7,3.56,3.68,5.21,0,1.31-.74.95,1.13,3.04,4.3,4.81-2.29-5.64,11.42,11.32l16.75,20.86-58.83.05.43,18.94c0,6.52.05,13.05.03,19.56ZM188,236.15l53.54-.12v6.66s-53.41,0-53.41,0l-.13-6.55ZM631.33,228.17l15.21.05-.09,14.49-14.93-.05-.19-14.49ZM268.77,245.29l.15,11.42-.04,11.51-107.8.21.13-22.88,107.55-.27ZM949.31,243.58c5.83,3.69,2.52,5.04,14.17,4.19,1.41,1.54,18.64,29.74,18.73,30.3l-76.89.08c-.52-5.19.75-4.46,9.1-10.34,9.72-6.84,26.04-18.64,34.9-24.23ZM456.88,325.91h2.16s-2.06,18.06-2.06,18.06l-1.89.42c.1,2.66.66,6.54-.44,8.87l-5.8.21.12,5.65-64.43.07-.22-8.8-5.89-.05-.26-31.28,2.85-.86v-12.19s3.37-.05,3.37-.05l-.07-23.84,5.57-.3.03-5.57,1.76-.98-.18-2.67c1.88.03,3.93.27,5.63-.33v-5.69s9.48-.03,9.48-.03l.04,9.44,47.98-.03-.11,22.92c-.7,4.87-.6,8.25-.42,13.56l2.7.24.08,13.24ZM944.51,303.15l-.28-13.87,37.87.03c.13,3.66.75,10.77-.39,13.67l-37.2.17ZM905.23,289.47c3.14-.51,9.28-.16,12.75-.16,3.24,0,10.34-.73,12.67.39l.2,13.38-25.57.06-.05-13.67ZM986.04,289.42c5.45-.17,30.38-.78,33.95.13l.07,13.49-33.81.11-.21-13.73ZM461.83,272.12l5.55-.02.05,45.03-5.66-.03.06-44.98ZM958.59,380.45c.63,5.48-2.67,7.03-8.31,13l-20.77,22.13c-3.28,3.46-7.46,7.7-10.47,11.3l-23.79.06-.08-103.62,9.81-.18.28-8.74,104.13-.14.08,28.74-18.07.03c-1.25-3.71-4.64-7.39-7.37-9.76-19.54-17.01-52.52,2.5-43.29,30.04,2.05,6.11,6.49,11.07,11.86,14.28,2.14,1.28,4.26,1.78,6,2.84ZM993.2,347.12l16.13-.06c.61,5.15.39,77.73-.09,79.32-.4.23-.37.27-1.14.44l-40.91.11-.15-45.41c12.77-.63,22.85-8.83,25.92-20.15,1.63-5.99.28-8.87.24-14.25ZM473.54,338.73l-.02-24.39.02-31.7,69.57.02.15,69.89-69.69.02-.02-13.84ZM985.58,357.27c-1.98,11.01-12.51,18.06-22.23,15.98-9.58-2.05-18.04-10.5-15.9-22.11,1.8-9.75,10.91-18,22.36-15.94,9.19,1.66,17.81,10.72,15.76,22.06ZM249.27,369.71l5.59.13.13,3.34c2.46-.16,2.43.34,4.3-.87l.13,23.55,45.33-.04c-1.63,3.73-.77,18.04-.71,23.27l.95,1.07-6.67.09-.09,2.86,7.38-.08.06-31.6-41.84.02.03-28.29c6.72-.07,42.84-.9,46.04.32.61,2.12.41,57.06.19,63.38l-50.68.07c-1.99-.29-.57,0-1.07-.81-6.71,1.27-18.24-.29-25.79.42l.13-35.78-.47-.02-.12,36.13-40.51.08c-2.01-6.52-13.39-45.88-13.01-46.91.21-.57,13.49-8.26,14.63-8.28,1.45-.03,5.13.3,7.39.29,10.36-.01,20.82.14,31.19-.02.91,3.54-.43,11.23.52,13.59l.23.13.22-7.35c1.53,1.28,2.41.95,4.46.76l-.11-22.06,6.85-.03c.37.73.55,1.48,1.29,1.66l14.5-.02.2,9.3-10.59.14-.08,1.58ZM877.99,323.26l8.22-.06.02,61.4-7.96.09c-.95-2.17-.82-55.45-.28-61.44ZM750,406.48c3.34-1.55,5.1.48,3.14,3.58l-2.59.09c-.88-1.36-1.07-1.89-.55-3.67ZM367.79,422.44l9.23.08c.69-8.28-1.09-55.17.48-57.95,2.41-1.12,74.48-.15,84.27-.32l.13-4.14,5.32-.33.2,67.17-109.19-.02v-1.88c-.98,1.17-.61,2.87-.79,4.49l-29.89.09-.48-2.9-6.17.05-.11-1.85-3.86-.3c-.33-5.56-.76-25.15.12-29.83l5.15.04c0-1.04-.04-2.17-.04-3.28,0-1.76-.32-1.84.64-2.8l50.24-.11.06,29.47c-1.18.88-3.76.5-5.5.47l.19,3.87ZM958.66,388.94l.05,37.93-35.74.08c.66-1.95,16.23-17.85,17.56-19.23,1.77-1.84,16.48-18.08,18.13-18.78ZM1014.51,314.36l17.7-.08.13,112.62-17.78.05-.04-112.58ZM192.96,430.94c10.81-.71,23.74-.09,34.68-.09h227.11c14.25,0,12.98-1.18,12.6,4.25l-273.62.11-.77-4.28ZM473.64,430.88l139.21-.03.07,4.26-139.15.11-.13-4.34ZM632.52,430.85h41.15c1.75.32,1.26,2.24,1.07,4.31l-42.01.06-.21-4.37ZM688.28,430.86h343.97s.05,4.21.05,4.21l-343.84.14-.18-4.36Z"/>
    <path class="cls-2" d="M846.34,163.29c-1.79,2.04-.81,13.53-.81,17.1,0,5.93-.06,11.89.04,17.86l-5.11.02c0-.9.07-2.05.04-2.91-.05-1.7.21-1.05-.44-2.07-2.11.06-22.25-.48-23.99.47.81,1.28.72,24.9.08,26.48l24.19-.8c.11-.66.06-.15.12-.83l-.42-20.06c1.65-.79,3.65-.57,5.5-.38l-.02,17.76-.04,26.63.08,13.5-.06,100.98-.2,9.82c.44,3.07.33,6.29.51,8.4.2,2.33.26,7.19-.16,9.35l.09,4.38c-.48-1.8,1.94-.89,6.54-.93,2.43-.02,4.86-.02,7.3-.02s12.1-.37,13.23.15l.03-69.43v-6.66c-.29-.86-.36-26.21-.03-27.25l.02-31,5.54-.03.02,30.95.08,27.38c.6.42-.09.17.95.38.53.11,1.05.12,1.6.13l9.05-.03c.07-.09.13-.37.16-.3.07.18-.47-1.33,3.06-1.42l5.15-.16c.12-2.41-.19-5.88.06-8.02.27-2.36,2.14-2.66,3.14-4.69-2.13-2.07-3.16-1.98-3.14-5.99.01-2.57.28-6.29-.15-8.79h-7.64s-.01-58.03-.01-58.03c-2.37-.78-9.39-.32-12.29-.3v5.72s0,19.18,0,19.18l-5.52.1-.05-18.9-.02-9.94.02-22.2c.07-2.5.29-33.16-.16-34.59-.34-1.09-3.66-5.34-4.53-7.03l-6.41-.02-11.13.04-4.25,6.02Z"/>
    <path class="cls-10" d="M397.13,272.27l-.09,3.63-7.12.35-.03,5.57v17.97s-3.01.18-3.01.18c-1.01,2.63-.3,9.01-.34,12.22-.48.27-.14.21-.98.34-.65.1-1.12.07-1.78.08l-.04,13.04c4.04.77,13.57.26,18.21.26h18.46c12.12,0,24.38-.16,36.48.01l-.08-13.24-2.7-.24c-.18-5.31-.28-8.68.42-13.56l.11-22.92-47.98.03-.04-9.44-9.49.03v5.69Z"/>
    <path class="cls-7" d="M674.44,303.16l31.11.12c1.09.48,12.24.03,15.47.22l.05,71.45c-1.73.7-4.32,1.91-5.83,2.81l-2.52,1.42c-.1.04-.22.08-.32.12l-6.08,2.88c-3.26,1.68-4.42,2.86-9.2,4.57-1.02,1.06-.47,4.05-.47,5.72,0,1.88-.32,4.54.33,6.02-.5-2.67-.7-8.19-.06-10.75,1.69-.7,75.05-.23,87.53-.23,8.82,0,22.04.46,28.77-.07l-.04-7.75-.04-6.1,13.94.1h17.01s-.14,10.78-.14,10.78l1.7.12c.42-2.16.36-7.02.16-9.35-.18-2.11-.07-5.33-.51-8.4l-32.05.19c-.35-2.31.34-4.86-.35-7.14l-.49.97c-1.24.53-2,2.63-2.75,3.59-.43.55-.92.95-1.47,1.54l-3.78,5.23c-1.27,1.48-1.43,1.49-2.31,3.61-4.8.94-74.19.52-79.91.4.55-1.17.63-1.29,1.29-2.13l2.08-2.64c.78-.96.13-.05.75-1.01.41-.64.65-1.2,1.07-1.87l5.38-7.17.17-54.01-.04-3.27h7.4s4.81-.09,4.81-.09c1.15-.4.58-4.12.57-5.47l.02-18.89c-.52-.54.78-.62-.86-.43.26,2.53.3-.5-2.28,3.17l-8.02,10.04c-2.01,1.51-8.42.55-11.47.55-10.06,0-55.68-.4-60.09.09.07.31-6.45,4.47-5.95,5.71,2.46,6.05,15.97,17.59,17.25,18.46,1.34.91-1.17-13.56.17-13.11"/>
    <path class="cls-7" d="M555.34,302.98l1.99.83s1.6,0,1.73,0l10.41-.04-.06,56.64,5.54,8.02c.05.07.13.18.18.25.07.1.66.97.69,1,1.21,1.52,3.37,3.34,4.32,6-4.18.57-76.53.46-80.31-.12-1.05-1.76-.28-1.11-2.2-3.65l-6.95-8.89c-1.41-1.59.13-.87-2.09-1.9l-.02,4.7-3.84.02-.04,14.47,3.91.03-.12,7.64,110.49.1,6.28-.14c-.44-.6.19.32-.37-.73l-.34.15-22.8-11.56c-.72-.96-.4-7.27-.39-8.67v-27.05c0-11.56.6-24.84-.08-36.19l15.04-.03,29.87-.08-.45,12.26c.97.54-.85.47,1.67.4l-.3-1.07c3.19-2.11,4.25-4.28,6.42-6.45l5.21-5.11c1.18-.92,4.24-3.77,4.8-5.36-.44-.78-.88-1.35-1.31-2.01-.13-.2-.51-.79-.71-1.05-.39-.51-.26-.26-.8-.96-1.76-2.29-.77-2.2-3.92-1.92l-67.46.1c-2.62-.2-2.69-1.71-3.85-3.16l-7.77-9.42c-.51-.53-1.25-1.02-1.58-1.28,0,4.15-.25,8.21-.25,12.41l.09,9.49c-.06,2.9-.55,2.26-.63,2.34"/>
    <path class="cls-10" d="M627.39,316.45l7.33-.02c1.44-2.2-.7-1.65,7.21-1.65h18.89c1.1,0,3.84-.16,4.73,0,2,.36.16-.22,2.42,1.51l.49.33c1.45-.1,3.61.04,4.85-.13,2.33-.32,1.27-.92,1.66-3.29-.82-1.96-.62-7.36-.52-10.04-1.33-.45,1.17,14.02-.17,13.11-.74-.5-14.77-16.64-16.27-18.03-1.63-1.52,5.16-5.19,4.96-6.13,4.41-.49,50.04-.09,60.09-.09,3.05,0,9.47.96,11.47-.55l8.02-10.04c2.58-3.67,2.54-.64,2.28-3.17l-95.8-.09h-12.55s-25.95.05-25.95.05l-5.81-.03c-8.21.02-16.43,0-24.64,0-2.15,0-22.47-.58-23.97.56.33.27,1.07.76,1.58,1.28l7.77,9.42c1.16,1.46,1.22,2.96,3.85,3.16l67.46-.1c3.15-.28,2.15-.37,3.92,1.92.54.7.42.45.8.96.2.26.58.85.71,1.05.43.66.87,1.23,1.31,2.01-.56,1.59-3.62,4.45-4.8,5.36l-5.21,5.11c-2.17,2.18-3.23,4.34-6.42,6.45l.3,1.07Z"/>
    <path class="cls-4" d="M674.96,313.21c-.39,2.36.67,2.97-1.66,3.29-1.24.17-3.39.02-4.85.13l-1.14.29-.38,6.45c-1.24.56-3.7.37-5.51.27l.03,6.13-8.33.22c0,5.76,1.8,2.78,2.2,6.29.65,5.68-8.08,6.11-8.29.8-.11-2.87.89.04,1.14-7.33-2.24.11-4.43.09-6.67.08-1.66,0-4.6-.45-5.99.52l5.76,1.81c.29.92-.27,2.92-.22,4.51.11,4.22,2.6,7.5,6.3,9.21l-3.37,14.27-7.51-2.03-20.66-.16.1-27.3c1.59-.76,2.81-1.29,3.95-2.79,1.83-2.4-.04-3.7,3.07-3.45l.2,4.87,3.69-.1c.65-1.28-.16-1.23,1.74-1.18l1.12-.35v-4.99s-9.43.04-9.43.04l.12-3.48c-1.42-1.72-2.91-3.58-6.32-3.77-3.02-.17-5.2,1-6.68,2.92-1.52,1.98-2.25,5.26-1,7.98,1.11,2.4,2.27,2.87,4.91,4.31l-.14,26.32-10.99-.13-.08-46.9-3.34-.29-.17,49.37c1.88-.25,5.63-.43,7.46.14l.63.33-.09,27.88.34-.15c.62-1.03.33-1.52.3-3.1l5.54.19.05-5.83c1.12-.93,3.91-.47,5.61-.51-.5-5.29-.84-8.33-.51-14.27l29.96.08.09,9.34h8.84s.16-9.43.16-9.43h30.56s-.04,14.2-.04,14.2l5.53.14.27.74c.02.11.08.26.1.39l.07,6.44c0,2.5-.04,5.49.16,7.65l.14-16.2-1.72-.14.03-12.97,2.18-.65-.02-4.93-2.22-.65.13-27.05c4.06-1.86,6.35-4.68,4.93-10.21-.62-2.41.81-3.5,2.07-5.48.75-1.17,2.27-3.37,2.82-4.84-.21-1.27-.4-.85-1.86-.84-1.77.81-3.86,5.76-5.45,7.62-2.27-.91-4.67-2.28-7.93-.96-2.78,1.13-2.41,3.39-5.85,3.22l-.26-9.55-3.39-.39-.19,3.99ZM612.14,319.66c4.27-1.97,6.49,4.64,2.49,6.04-3.79,1.33-6.47-4.2-2.49-6.04ZM685.76,319.92c3.74-2.76,7.5,3.14,3.69,5.47-3.61,2.21-7.16-2.9-3.69-5.47ZM675.78,329.26l3-.05v-4.76c1.2.35.5-.06,1.26.73.29.29.4.68.61,1.14,1.19,2.64,4.51,4.53,4.52,4.52.05-.09.2.15.29.24,0,6.23.82,21.8-.2,27.01l-21.46-.05-5.56.91c-.67-1.52-3.2-12.38-2.94-14.12,7.82-4.69,5.49-9.64,5.5-13.68l13.75-4.18,1.23,2.3Z"/>
    <path class="cls-3" d="M436.1,377l-.15,15.13-5.12.05c-4.38-.28-37.08-.58-38.68.23-1.16.91-.5,10.49-.5,12.93,0,4-.3,9.52.14,13.33l59.88-.11,5.63.08c.48-3.64.42-46.02-.17-47.91l-20.93.18-.1,6.08Z"/>
    <path class="cls-10" d="M610.71,384.31l.05,19.18,17.27.09,49.07-.04,8.5.12,5.38.19-.05-25.81c-5.13.65-14.62.04-20.26.04-6.73,0-13.45.06-20.18.06-6.62,0-35.64-.88-39.75.34l-.05,5.83Z"/>
    <path class="cls-10" d="M705.99,219.03l.15,38.11.03,5.31c3.02.11,10.71.61,13.19-.16l.14-66.08,66.59-.4c.88-1.87.32-5.42.32-7.69,0-.85.12-3.64.01-4.27-.27-1.52-.45-1.09-2.32-1.13h-10.44s-18.42.13-18.42.13l-49.15-.1-.11,36.28Z"/>
    <path class="cls-7" d="M455.08,344.39l1.89-.42,2.06-18.05h-2.16c-12.1-.18-24.35-.02-36.48-.02h-18.46c-4.63,0-14.17.52-18.21-.26v18.61s5.91,0,5.91,0l.26,8.82,64.72.07c-.06-1.92-.62-7.25.45-8.75"/>
    <path class="cls-10" d="M208.4,298.97c-3.14,6.47-4.73,6.36-4.7,11.92.03,5.62-.18,11.5.06,17.09l4.95.21c-.05,1.03-.67,19.29.34,20.19,2.28.89,19.91.47,23.73.24h5.38s.21-22.58.21-22.58l5.97-.24v-10.79s-6.15-.08-6.15-.08l-.12-22.24h-8.81l-.16-3.86-9.07-.09c-.39,1.79.06,2.44-.53,3.91-8.68.48-6.28-1.61-10.73-4.82-1.3,1.09-4.1,3.49-4.8,5.05,1.16,1.42,4.97,3.98,4.45,6.1"/>
    <path class="cls-7" d="M584.05,229.78l-.06-18.13c-13.25-.74-94.91.76-98.71-.29l-.02,18.48,98.79-.07Z"/>
    <path class="cls-10" d="M485.26,200.43l.02,10.94c3.8,1.04,85.46-.45,98.71.29v-17.27s-36.18.04-36.18.04c-2.32-.07-9.11.5-10.15-.02l-52.4.1v5.92Z"/>
    <path class="cls-10" d="M696.99,398.49l3.99.13.12,6.02,11.74-.02-.04-6.02,32.6.04.86,2.2h6.01c.75-.96.49-1.05.86-2.15l30.91-.04c6.2,6.59,15.02,6.88,24.04,3.3.8-.77,1.47-.79,2.51-1.82,1.04-1.03.81-1.34,2.69-1.54l.22-3.28,8.07-.03-.03-4.22c-.35-1.43,1.25-1.53-4.02-1.36-1.49.05-3.27.21-4.41-.25l.12-2.02c-6.73.53-19.95.07-28.77.07-12.48,0-85.84-.47-87.53.23-.64,2.56-.44,8.07.06,10.75"/>
    <path class="cls-7" d="M706.14,257.14l.02,5.36,19.82.16,5.35-.05c1.19-3.73.33-46.32.46-54.33l48.65.02,5.42-.03.23-12.48-66.59.4-.14,66.08c-2.48.77-10.17.27-13.19.16l-.03-5.31Z"/>
    <path class="cls-7" d="M369.86,190.96c.58,1.68,6.92,8.59,8.47,10.52.09-.06.23-.26.27-.18l75.08-62.11c1.23-1.17,3.64-3.33,5.25-4.31l-8.87-11.48.37,1.15c-1.95,1.19-3.18,2.8-5.26,4.19l-13.84,11.5c-2.9,2.81-3.87,3.1-6.33,5.23l-7.58,6.16c-5.21,4.12-11.67,10.4-17.5,14.63-1.97,1.43-4.72,4.33-7.76,6.51l-22.29,18.19Z"/>
    <path class="cls-10" d="M697.12,386.75c4.78-1.71,5.94-2.89,9.2-4.57l6.08-2.88c.1-.04.22-.08.32-.12l2.52-1.42c1.51-.9,4.1-2.1,5.83-2.81l-.05-71.45c-3.23-.19-14.38.26-15.47-.22l.02,55.43-8.14.24-.3,27.8Z"/>
    <path class="cls-4" d="M203.36,374.75l-6.95.02v49.82s26.83.14,26.83.14l-.1-49.77-7.95-.25c-.24-.42-.03-.15-.31-.82-.03-.08-.08-.22-.12-.3-.04-.09-.1-.23-.13-.32l-10.6-.68-.67,2.16Z"/>
    <path class="cls-10" d="M604.54,387.37l.09-27.88-8.46-.33.14-55.29-15.04.03c.68,11.35.08,24.63.08,36.19v27.05c0,1.39-.32,7.71.4,8.67l22.8,11.56Z"/>
    <path class="cls-10" d="M422.61,131.14l-3.03,2.47-28.8,24.03c-7.75,5.91-17.28,14.45-25.13,20.81-1.34,1.09-3.01,1.65-3.25,3.7.59.53,6.99,7.64,7.46,8.81l22.29-18.19c3.03-2.18,5.78-5.08,7.76-6.51,5.84-4.23,12.3-10.51,17.5-14.63l7.58-6.16c2.46-2.14,3.43-2.42,6.33-5.23l13.84-11.5c2.08-1.39,3.32-3,5.26-4.19l-.37-1.15c-1.74-2.27-5.12-6.56-7.32-8.69-1.6.67-7.65,6.24-9.97,8.04-3.29,2.55-6.95,5.94-10.15,8.39"/>
    <path class="cls-7" d="M258.47,183.85c1.22,1.68,6.22,8.13,7.8,9.08,1.64-.71,9.04-7.24,11.31-8.99l22.08-18.24c1.81-1.54,3.7-3.04,5.6-4.72,2.02-1.78,4.14-3.7,5.87-4.55l2.05-1.5c.95-1.32,2.88-2.67,4.19-3.69l21.42-17.68c2.65-2.29,5.95-5.28,8.53-7.27-.45-1.32-7.16-9.12-8.04-9.76-.64,1.54-3.23,2.95-5.14,4.66l-4.58,3.98c-.97.98-1.34.84-2.47,1.81-.94.81-1.59,1.51-2.56,2.2-1,.71-2.02,1.3-2.76,1.95l-12.52,10.65c-1.81,1.38-3.56,2.71-5.07,3.95-1.9,1.57-1.35,1.57-5.13,4.36l-6.11,5.02c-.44.42-.92.86-1.34,1.22-1.05.89-1.6,1-2.73,2.05l-27.87,23.17c-1.43.97-1.72.68-2.54,2.27"/>
    <path class="cls-6" d="M489.17,394.24c-1.14.77-2.25.57-3.94.55h-11.63s.03,7.2.03,7.2l130.96.04c1.11-1.79.65-7.26.58-9.69-4.54-.23-2.07.35-7.03-.57l-107.42-.09c-2,.54-1.82-.15-1.54,2.57"/>
    <path class="cls-10" d="M315.51,120.43c-.72.96-2.08,2.2-3.33,2.72-1.34,1.9-5.33,4.81-7.4,6.44l-52.23,43.08c-1.37,1.13-1.35.77-1.83,2.22,1.24,1.04,2.7,3.09,3.77,4.36,1.47,1.73,2.6,2.98,3.97,4.59.82-1.59,1.11-1.3,2.54-2.27l27.87-23.17c1.13-1.05,1.68-1.16,2.73-2.05.42-.36.9-.8,1.34-1.22l6.11-5.02c3.77-2.79,3.23-2.78,5.13-4.36,1.51-1.24,3.26-2.58,5.07-3.95l12.52-10.65c.74-.66,1.76-1.25,2.76-1.95.97-.69,1.61-1.39,2.56-2.2,1.13-.98,1.5-.84,2.47-1.81l4.58-3.98c1.9-1.71,4.49-3.12,5.14-4.66-.82-1.36-6.24-8.3-7.74-8.99-2.01,1.6-14.18,12.02-16.02,12.88"/>
    <path class="cls-7" d="M268.93,256.71c-1.88-1.08-21.63-.23-26.26-.23-26.73,0-55.18.44-81.53-.04v-11.17s107.64.02,107.64.02l-107.55.27-.13,22.88,107.8-.21.04-11.51Z"/>
    <path class="cls-10" d="M488.57,361.13c2.22,1.03.68.3,2.09,1.9l6.95,8.89c1.92,2.54,1.15,1.89,2.2,3.65,3.78.58,76.13.69,80.31.12-.94-2.66-3.11-4.47-4.32-6-.03-.04-.62-.91-.69-1-.05-.07-.13-.18-.18-.25l-5.54-8.02-2.9-.03-2.56.02h-74.72s-.95.31-.95.31l.28.42Z"/>
    <path class="cls-5" d="M674.96,313.21l.19-3.99,3.39.39.25-3.32,20.35.12-1.11,2.87c1.46-.01,1.64-.43,1.86.84,1.04-.47.8-.2.85,1.56.4,13.71-.46,30.8-.02,45.3l-4.2.03-.26,7.85c.72,1.63.47,9.89.11,12.08l-4.68.1-.14,16.2c-.2-2.15-.16-5.15-.16-7.65l-.07-6.44c-.02-.13-.08-.28-.1-.39l-.27-.74.05,25.81-.05.96h4.47s.19,6,.19,6l11.59-.08-.19-5.55,32.37-.51c.5.57.84.98.86,2.23h6.87c.22-.56.18-.8.32-1.16.34-.88.14-.53.54-1.09l26.62.02c5.35-.07,3.22.27,6.34,2.47,3.63,2.57,9.25,3.68,14.67,2.9,8.49-1.21,7.87-4.12,11.88-5.57l.59-2.52c-9.02,3.58-17.84,3.28-24.04-3.3l-30.91.04c-.37,1.11-.11,1.2-.86,2.16h-6.01s-.86-2.2-.86-2.2l-32.6-.04.04,6.02-11.74.02-.12-6.02-3.99-.13c-.65-1.48-.34-4.14-.33-6.02,0-1.67-.55-4.65.47-5.72l.3-27.8,8.14-.24-.02-55.43-31.11-.12c-.1,2.68-.31,8.08.52,10.04"/>
    <path class="cls-10" d="M268.93,256.71l-.15-11.42-107.62-.02v11.17c26.34.47,54.79.04,81.52.04,4.63,0,24.38-.85,26.26.23"/>
    <path class="cls-6" d="M489.17,394.24c-.28-2.72-.46-2.03,1.54-2.57l107.42.09c4.97.92,2.5.34,7.03.57.06,2.43.52,7.9-.58,9.69,1.26,1.29.66,5.46.58,7.7l17.71.91c.05.07.12.18.17.26.27.43.21.39.45.84l6.55,12.33c2.11.08,4.19.08,6.3.07,5.68-.02,4.91-.61,5.75.95-.1.08-.25.16-.34.2l-1.11.42c-2.32.47-7.05-.82-8.27.67,1.58,1.65,8.5-.09,11.02,1.1,1.7.8,2.02,1.82,4.56.68,2.23-1,1.37-1.21,4.71-1.22,3.86-.01,7.74.02,11.6.02,1.89,0,9.92.56,10.85-.58-2.23-2.41-22.51,1.16-24.87-1.29.87-2.28,9.44-.1,11.54-1.15,1.05-.85,3.38-4.24,3.7-5.88l-8.96-.04-1.54,2.97c-1.17,1.53-5.14,3.32-7.44-1.93-.05-.11-.1-.23-.15-.33l-11.83-.7-7.53-14.45-17.27-.09-.05-19.18-5.54-.19c.02,1.58.32,2.07-.3,3.1.55,1.05-.07.13.37.73l.02,3.96-6.26-.15-.05-3.67-110.49-.1.12-7.64-3.91-.03.04-14.47c-1.42.85-.67.38-1.81.85l.17,5.28h-3.96s.1,14.4.1,14.4l3.82.1-.08,7.68,6.22.07Z"/>
    <path class="cls-10" d="M812.42,360.88c-12.43.76-27.29.05-39.99.05-1.9,0-37.81.71-39.66-.51l-5.38,7.17c-.41.68-.66,1.23-1.07,1.87-.62.96.03.05-.75,1.01l-2.08,2.64c-.66.85-.74.96-1.29,2.13,5.71.12,75.11.53,79.91-.4.88-2.12,1.04-2.13,2.31-3.61l3.78-5.23c.55-.6,1.04-.99,1.47-1.54.75-.97,1.51-3.07,2.75-3.59"/>
    <path class="cls-7" d="M237.31,379.73l-1.78.11c-.1.69-.27,2.5-.14,3.15.25,1.27-.28.65,1.54,1.59.08.04.25.08.36.16-.42,8.81.42,4.56.91,8.13l-.05,25.86c-.13,2.62-.57,1.52,6.24,1.53l53.94-.02,6.67-.09-.95-1.07c-.98-1.27-1.42-1.65-2.41-2.73-3.52-3.84-1.02.2-3.28-3.12-.05-.08-.12-.19-.17-.27-1.42-2.04-3.14-3.3-4.42-5.37l-44.22-.14c-.82-6.24.01-15.26-.14-21.9-.06-2.63-2.62-4.9-4.38-6.58-1.04-.99-1.87-2-2.69-2.91-1.48-1.65-1.09-.72-2.59-2.94-1.36-.69-.54-.54-1.51-.67l-.04,6.27c-.42.9.05.55-.87,1"/>
    <path class="cls-10" d="M239.73,373.13c1.5,2.22,1.1,1.29,2.59,2.94.81.91,1.65,1.92,2.69,2.91,1.76,1.68,4.32,3.95,4.38,6.58.16,6.63-.67,15.66.14,21.9l44.22.14c1.28,2.07,3,3.33,4.42,5.37.05.08.12.19.17.27,2.26,3.32-.24-.72,3.28,3.12.99,1.08,1.44,1.46,2.41,2.73-.07-5.22-.92-19.54.71-23.27l-45.33.04-.13-23.55c-1.87,1.21-1.84.7-4.3.87l-.13-3.34-5.59-.13-2.07.27-.11,3.15h-7.35Z"/>
    <path class="cls-7" d="M315.77,343.96c-.15,6.52-.49,3.94,4.4,4.88l.18,9.73,23.76.16.02,4.41,7.94.02-.03-4.27,25.63-.34-.02-14.99-57.48.14.04-4.24-3.13.14-.1,4.1-1.21.24Z"/>
    <path class="cls-7" d="M332.95,418.65l.14,4.73,7.02.26,17.78.11,5.11.13.22-1.4-.11-3.93,4.49.03c1.74.03,4.32.41,5.5-.47-.62-1.18-.62-.36-2.3-3.55l-6.63-10.97h-32.7s-8.94-14.46-8.94-14.46l-.16,29.43,10.59.09Z"/>
    <path class="cls-6" d="M985.58,357.27c2.05-11.35-6.58-20.41-15.76-22.06-11.45-2.06-20.56,6.18-22.36,15.94-2.15,11.61,6.31,20.06,15.9,22.11,9.72,2.08,20.24-4.98,22.23-15.98M964.17,344.55c12.98-2.61,16.24,16.08,4.42,18.78-13.11,2.99-16.64-16.32-4.42-18.78Z"/>
    <path class="cls-10" d="M320.21,339.47l-.04,4.24,57.48-.14c-.01-2.14.49-14.45-.7-14.84h-56.44c-.58,1.84-.54,8.61-.29,10.74"/>
    <path class="cls-3" d="M490.01,245.32c-.88,2.68-.22,21.61-.18,26.13l30.6.04v-26.32c-1.1-.23-24.86-.65-28.78-.22-.16.02-.28.04-.42.06l-.81.2c-.08-.12-.27.07-.4.12"/>
    <path class="cls-5" d="M455.08,344.39c-1.07,1.5-.51,6.83-.45,8.75l-64.72-.07-.26-8.82h-5.92s.01-18.61.01-18.61l.04-13.04c.66,0,1.13.03,1.78-.08.84-.13.5-.07.98-.34.04-3.21-.67-9.59.34-12.22l3.02-.18v-17.97s-5.58.3-5.58.3l.07,23.84-3.36.05v12.19s-2.87.86-2.87.86l.26,31.28,5.89.05.22,8.8,64.43-.07-.12-5.65,5.8-.21c1.1-2.32.54-6.2.44-8.87"/>
    <path class="cls-9" d="M274.33,292.01l-.02,42.5c0,8.32.35,6.82,9.57,6.83,4.25,0,29.57.4,30.41-.44,1.05-1.06.46-40.3.46-49.75,0-8.48.69-7.4-6.4-7.38-7.64.02-24.54-.42-31.38-.06-3.49.18-2.63,2.27-2.64,8.3M289.68,286.17c1.39-1.09,8.34-.65,9.7.16-.2,1.47-.17,1.59-1.74,1.71-.74.06-2.16-.09-3.02-.09-3.06.01-4.49,1.23-4.93-1.78ZM300.56,289.37c.54-1.38.13-2.48,1.01-3.33,3.23-3.13,2.49,4.82,2.49,5.12.02,3.8.31,4.15-2.54,4.26l-6.9-.02c-3.2-.1-8.77,1.05-9.36-.96l-.23-1.98c0-1.02.05-2,.01-3.05-.1-3.27-.72-4,2.78-3.46,1.44,3.35-1.43,3.79,4.63,3.76,2.44-.01,6.24.31,8.11-.35ZM276.02,293.3c0-2.32-.55-3.95.86-5.69.85-1.05,2.54-2.45,4.89-1.86,1.74.44,1.37.49,1.4,2.34.34,16.98-.27,4.86,6.32,10.77,4.3,3.86,6.91,2.66,10.65-.45,2.6-2.17,3.39-.22,5.63-2.2.62-.9.23-6.04.24-7.65.02-1.75.22-3.86,3.98-2.64.57.19,1.67,1.06,2.1,1.51,1.79,1.89,1,9.83.99,13.17-.03,11.04,1.24,11.14-2.99,11.11-8.8-.06-5.95.27-7.95-3.64-2.7-5.28-10.48-7.46-15.01-.34-2.42,3.8,2.31,4.46-10.98,3.74l-.14-18.17ZM287.91,311.53c-.69-2.24,1.5-4.96,3.86-6.05,5.43-2.49,9.4,2.83,9.65,4.72.26,2.01-1.43,1.59-3.35,1.5-2.69-.14-8.17.26-10.16-.17ZM287.82,313.57c1.4-.28,12.71-.16,13.45.12.82,2.71-2.86,6.42-6.65,6.4-3.86-.03-7.34-3.2-6.8-6.52ZM276.02,321.63c0-9.52-1.41-8.25,4.86-8.23,8.26.02,3.2.57,7.44,5.52,2.05,2.39,5.88,3.97,9.68,2.2,4.53-2.11,5.02-7.13,5.36-7.4,2.41-.71,7.39-.79,9.41.03l.39,1.86c.02.33-.02,1.72-.02,2.16-.04,3.66.63,17.61-.76,19.48-1.39,1.87-3.21,2.97-5.85,1.73-.78-.67-.45-4.84-.44-5.76.05-8.84-2.03-2.57-6.56-7.06-3.92-3.88-7.14-2.41-10.37.32-2.13,1.8-3.59,1.02-5.87,1.94-.43,9.27,1.13,12.21-4.05,10.82-4.67-1.25-3.22-10.33-3.21-17.61ZM285.47,330.08c1.08-1.04,13.5-.51,16.06-.48,2.09.02,2.4-.27,2.58,1.86.08.94-.09,2.79-.06,3.92.03.98.63,4.86-1.98,3.87-1.48-.56-.7-.49-.9-.98-1.44-3.44.67-3.02-5.26-2.91-1.79.03-6.58-.82-7.47.71-.92,1.58.83,2.35-1.26,3.15-1.92.74-2.06-.36-2.2-1.64-.18-1.65-.37-6.67.5-7.51ZM295.9,339.33c-5.39,0-5.94.88-6.2-2.01,1.35-.73,8.4-.42,9.66.14-.23,2.54-.85,1.87-3.46,1.87Z"/>
    <path class="cls-10" d="M322.52,389.13l8.94,14.47h32.7s6.63,10.96,6.63,10.96c1.68,3.19,1.68,2.37,2.3,3.55l-.06-29.47-50.24.11-.28.37Z"/>
    <path class="cls-7" d="M307.97,243c.49,1.29.88,1.45,1.86,2.44,1.02,1.03,1.14,1.37,1.99,2.31,1.69,1.87,2.55,3.2,4.25,4.72,2.71-.9,33.46-29.14,39.34-33.06.58-.86,4-3.59,5.3-4.68-.43-1.75-2.63-3.54-3.92-5.09-.97-1.17-3.32-3.96-4.32-4.65-.93.96-1.87,1.4-3.03,2.34-1.17.95-1.47,1.55-2.58,2.54l-9.91,8.14c-5.52,4.96-17.22,14.57-20.61,18.02l-8.38,6.96Z"/>
    <path class="cls-10" d="M323.99,213.82c-1.23-.78-1.4-1.13-2.37-2.07l-1.42.88-2.38,1.99c-.64.85-.7,1-1.87,1.66.72,1.97,1.25,1.58,2.36,3.18-.95,1.87-5.28,4.09-6.11,6.07-1.6,1.02-1.4.96-2.82,2.25-1.12,1.02-1.49,1.1-2.8,2.37l-5.49,4.76c.97,1.75,5.47,6.87,6.9,8.09l8.38-6.96c3.38-3.45,15.09-13.06,20.61-18.02l9.91-8.14c1.11-.99,1.41-1.59,2.58-2.54,1.17-.94,2.11-1.38,3.03-2.34-1.47-1.93-5.44-6.87-7.21-8.18-2.38,1.5-12.66,10.85-15.51,13.14-1.45,1.16-3.91,3.09-5.14,4.4l-.63-.55Z"/>
    <path class="cls-7" d="M665.48,418.06c3.1-.05,3.13-1.66,4.46-3.6.99-1.45,2.2-3.87,3.26-4.52l3.91-6.4-49.07.04,7.53,14.45,11.83.7c.04.1.1.22.15.33,2.29,5.25,6.26,3.46,7.44,1.93l1.54-2.97,8.96.04Z"/>
    <polygon class="cls-8" points="839.81 263.19 840.12 366.8 843.76 366.94 843.92 356.98 845.51 357.03 845.56 256.05 840.01 255.94 839.81 263.19"/>
    <path class="cls-7" d="M276.02,321.63c0,7.28-1.45,16.37,3.21,17.61,5.19,1.38,3.62-1.55,4.05-10.82,2.28-.91,3.74-.14,5.87-1.94,3.23-2.74,6.46-4.2,10.37-.32,4.53,4.48,6.61-1.78,6.56,7.06,0,.92-.34,5.09.44,5.76,2.64,1.24,4.46.14,5.85-1.73,1.39-1.87.72-15.83.76-19.48,0-.44.04-1.83.02-2.16l-.39-1.86c-2.02-.83-7-.74-9.41-.03-.34.27-.83,5.29-5.36,7.4-3.8,1.77-7.63.19-9.68-2.2-4.24-4.96.81-5.5-7.44-5.52-6.27-.02-4.85-1.29-4.86,8.23"/>
    <path class="cls-7" d="M276.02,293.3l.14,18.17c13.29.72,8.56.06,10.98-3.74,4.53-7.12,12.32-4.94,15.01.34,2,3.91-.84,3.58,7.95,3.64,4.23.03,2.95-.07,2.99-11.11.01-3.34.79-11.28-.99-13.17-.43-.46-1.52-1.33-2.1-1.51-3.76-1.22-3.96.89-3.98,2.64-.02,1.61.37,6.74-.24,7.65-2.24,1.99-3.03.04-5.63,2.2-3.73,3.11-6.34,4.3-10.65.45-6.59-5.9-5.98,6.22-6.32-10.77-.04-1.85.34-1.9-1.4-2.34-2.35-.59-4.04.81-4.89,1.86-1.41,1.74-.86,3.37-.86,5.69"/>
    <path class="cls-2" d="M815.95,262.99l18.53.25,5.33-.04.19-7.25-.07-13.4c-.13-2.4.35-1.04-.81-2.11l-22.9.15-.27,22.4Z"/>
    <path class="cls-8" d="M877.99,323.26c-.54,5.99-.67,59.27.28,61.44l7.96-.09-.02-61.4-8.22.06Z"/>
    <path class="cls-6" d="M451.66,418.57l-59.88.11c-.7-.89-.14.34-.39-.96l-.06-8.93c0-2.94.48-8-.36-10.61l-4.85.08c-.64,2.47-.46,22.96-.19,26.53l65.93-.04-.19-6.18Z"/>
    <path class="cls-10" d="M271.91,282.66l-.05,61.26,33.81.13,7.43-.22,2.66.12,1.21-.24.1-4.1-.25-14.73.02-3.44.07-40.15-3.94-.03-40.9.02-.17,1.38ZM274.33,292.01c0-6.03-.85-8.12,2.64-8.3,6.84-.36,23.74.08,31.38.06,7.09-.02,6.4-1.1,6.4,7.38,0,9.44.59,48.69-.46,49.75-.83.84-26.16.45-30.41.44-9.22,0-9.57,1.5-9.57-6.83l.02-42.5Z"/>
    <path class="cls-6" d="M232.3,385.6l-.1,5.13.47.02-.13,35.78c7.55-.71,19.08.86,25.79-.42l.03-2.9,39.87-.11.09-2.86-53.94.02c-6.81,0-6.37,1.09-6.24-1.53l.05-25.86c-.49-3.57-1.32.68-.91-8.13-.11-.07-.27-.11-.36-.16-1.83-.95-1.29-.32-1.54-1.59-.13-.65.04-2.46.14-3.15l1.78-.11-.1-.58c-2.05.19-2.93.51-4.46-.76l-.22,7.35-.23-.13Z"/>
    <path class="cls-6" d="M158.59,274.26c24.7.6,53.1.08,78.49.1,6.93,0,20.06-.89,26.27.13l.05-4.15-102.67-.19.02-18.35-2.36-.33.2,22.8Z"/>
    <polygon class="cls-6" points="578.57 232.64 483.01 232.63 483.06 200.61 479.57 200.43 479.62 235.96 578.27 236.02 578.57 232.64"/>
    <path class="cls-5" d="M604.62,359.49l-.63-.33c-1.83-.58-5.58-.39-7.46-.14l.17-49.37,3.34.29.27-3.28c3.64-.3,7.85-.11,11.56-.11,1.86,0,3.72,0,5.58,0,8.08,0,5.09-1.03,5.53,12.59l-2.64.07-.12,3.48,9.42-.04v4.99s-1.11.35-1.11.35l3.22,1.18c1.54.4,2.25.83,3.75,1.17,1.39-.98,4.33-.53,5.99-.52,2.24,0,4.43.02,6.67-.08v-3.6s4.92-.23,4.92-.23l.04,4.07,8.33-.22-.03-6.13-26.1-.11-.44-6.78c-.02-.18-.1-.22-.17-.31l-7.33.02c-2.52.08-.69.14-1.67-.4l.45-12.26-29.87.08-.14,55.29,8.46.33Z"/>
    <path class="cls-5" d="M377.66,358.56l-25.63.34.03,4.27-7.94-.02-.02-4.41-23.76-.16-.25-6.05-7.11.05-.1-6.88-2.72.39v8.68s4.38.2,4.38.2l.18,9.78,23.91-.03.03,4.47,7.68-.1-.06-4.33,25.79-.18-.23-5.42,4.72-.28c1.05-.15.66-.11,1.08-.31"/>
    <path class="cls-7" d="M479.09,313.97l.04,18.47c3.19.27,12.33.59,15.01-.19v-22.37s.08-1.77.08-1.77l-15.09.12-.04,5.75Z"/>
    <path class="cls-6" d="M1126.76,427.09c.81,1.48.48,1.97.43,3.81h-39.53s.17,4.27.17,4.27l38.36.05,2.03,3.72c.49,2.54-.3,2.62-1.12,4.3-1.55,3.2,2.43,4.33.84,8.1-.83,1.97-1.87,1.75-.82,4.48.5,1.3,1.48,1.93,1.13,3.96-.25,1.45-1.49,2.33-1.52,3.98-.03,1.61.87,2.04,1.44,3.54.78,2.37-1.09,2.93-1.59,5.14-.63,2.82,1.69,3.7,1.78,5.55.08,1.71-2.46,2.67-1.98,5.45.18,1.07.92,1.81,1.38,2.63,1.47,2.64-.55,1.66,2.31,2.12.55-.85.99-1.24.01-2.89-3.17-5.38,1.39-2.95.64-7.83-.33-2.12-2.78-3.17-1.38-5.53.43-.72,1.15-1.09,1.4-2.65.31-1.97-.05-1.95-.78-3.22-3.37-5.88,3.98-2.65-.65-10.59-1.15-1.97.8-2.68,1.28-4.7.72-3.04-.87-3.7-1.92-5.94-.07-.91,2.98-4.41,2.04-6.44-4.34-4.36.53-3.91.02-9.44-4.59-3.9.78-4.75-.02-8.99-.39-2.03-2.22-2.73-1.72-4.26.36-1.13,1.72-2.55,1.69-3.5-.08-2.54.09-.75-.6-1.71-3.08.64-.81-.44-2.2,2.26-3.38,6.53-.52,3.35.72,8.47-.99,1.13-.86.57-1.54,2.15-.84,1.97-.87,2.63-.27,3.7"/>
    <path class="cls-3" d="M440.04,200.08l.19.4,3.7.27.09,20.28,6.45-.02.08,2.81-.09.12,1.46-.31.2-2.35,4.03-.36.11-26.52-4.3-.09-.09-20.84,15.6.06c-.63-.68.06-.24-1.13-.68-1.21-.44.28-.02-.83-.21l-14.19.04-.19,21.63-7.21.15.16,5.63c-1.86.43-2.22.53-4.03-.03"/>
    <path class="cls-5" d="M578.57,232.64l-.4-2.34c2.02-.08,4.65.26,5.88-.52l-98.79.07.02-18.48-.02-10.94-2.21.19-.05,32.02h95.56Z"/>
    <path class="cls-8" d="M827.2,380.01c-1.68,3.36,1.17,14.1-1.1,15.54-.98-1.45-.34-2.66-.48-4.97l-3.25.02c.91.57,1.45.32,2.94.38.11,2.49-.86,4.46,1.22,5.05,1.91-1.76.02-13.04.96-16.24l12.24-.07c.6,2.51.35,11.9.2,14.92.35,1.37,3.83,2.94,3.85,6.83.02,3.42.01,7.08-.08,10.49.48-.81.38-1.48.34-2.7-.1-2.6-.29-6.67.27-9.01l18.84.09c.8-2.06,2.2-2.7,2.93-4.96l-15.75-.13c-1.64-2.04-2.48-4.29-4.57-6.25l-.09-4.38-1.7-.12.14-10.77h-17.01s.11,6.3.11,6.3Z"/>
    <path class="cls-5" d="M554.49,309.95l-.07-.39.15-1.32h11.89s.06,52.16.06,52.16l2.9.03.06-56.64-10.41.04c-.13,0-1.71,0-1.73,0l-1.99-.83-.91-.8c-.58-2.29-.07-14.53-.05-17.86l-3.73.13-.13,20.02c.03,4.91-.03,2.88-.69,5.3l4.66.19Z"/>
    <path class="cls-8" d="M811,216.34l-.1,10.42.03-.14,23.86-.13.1-4.46,4.92.21.22,17.96-.91.25c1.16,1.07.68-.29.81,2.11h5.55s.04-26.62.04-26.62l-4.93-.06c-.23,3.67,1,4.64-2.42,4.64l-21.95-.05c-1.68-1.73-3.12-3.43-5.22-4.12"/>
    <path class="cls-5" d="M731.33,262.62c1.05-.67.7-1.03.71-2.77.03-10.45-.53-39.81.1-45.44l48.16.03.14-6.12-48.65-.02c-.13,8,.73,50.6-.46,54.33"/>
    <path class="cls-6" d="M201.22,295.69l.25,12.1-.13,26.73.2,15.58,1.44.24,29.37-.25.41-1.47c-3.82.23-21.45.66-23.73-.24-1-.9-.39-19.16-.34-20.19l-4.95-.21c-.24-5.58-.03-11.47-.06-17.09-.03-5.55,1.56-5.45,4.7-11.92l-1.49-1.26c-.09-.09-.33-.36-.42-.45-1.08-1.18-2.11-2.71-3.75-3.15-1.21.82-.42.57-1.52,1.57"/>
    <path class="cls-7" d="M964.17,344.55c-12.22,2.45-8.7,21.77,4.42,18.78,11.83-2.7,8.56-21.38-4.42-18.78"/>
    <path class="cls-6" d="M369.86,190.96c-.48-1.17-6.87-8.28-7.46-8.81-1.15,2.38-3.57,1.83-4.3,4.99l10.98,13.23c2.05,2.29,1.4,2.22,4.76,5.5,1.53.13.79.19,1.96-.56l13.74-11.55c1.93-1.37,2.93-2.2,5.02-4.01l25.1-20.85c.42-.33.88-.77,1.38-1.19l28.37-23.57c1.03-.88,1.46-1.31,2.56-2.17,1.61-1.27.87-.61,1.7-2.78l-75.08,62.11c-.04-.08-.17.13-.27.18-1.55-1.93-7.89-8.84-8.47-10.52"/>
    <path class="cls-5" d="M237.21,379.15l.1.58c.92-.44.45-.1.87-1l.04-6.27c.97.12.15-.03,1.51.67h7.35s.11-3.15.11-3.15l2.07-.27.08-1.58,10.59-.14-.2-9.3-14.5.02c-.74-.18-.92-.93-1.29-1.66l-6.85.03.11,22.06Z"/>
    <path class="cls-7" d="M634.72,316.43c.07.09.15.13.17.31l.44,6.78,26.1.11c1.81.1,4.26.29,5.51-.27l.38-6.45,1.14-.29-.49-.33c-2.26-1.74-.43-1.15-2.42-1.51-.89-.16-3.63,0-4.73,0h-18.89c-7.91,0-5.76-.55-7.21,1.65"/>
    <polygon class="cls-7" points="486.94 291.42 486.93 303.72 501.95 303.61 502.01 285.37 486.92 285.49 486.94 291.42"/>
    <path class="cls-6" d="M258.47,183.85c-1.37-1.61-2.51-2.85-3.97-4.59-1.08-1.28-2.53-3.33-3.77-4.36-.22,1.4-.06.65-.87,1.49l-4.79,3.73c.84,2.46,15.02,18.63,15.63,19.05,1.7-.81,4.75-3.78,6.14-4.91,2.09-1.71,4.45-3.8,6.36-5.23l29.2-24.04c2.77-2.45,7.74-5.62,8.56-8.01l.18-.54c-1.73.85-3.85,2.77-5.87,4.55-1.9,1.67-3.78,3.18-5.6,4.72l-22.08,18.24c-2.27,1.75-9.66,8.28-11.31,8.99-1.59-.96-6.59-7.4-7.8-9.08"/>
    <path class="cls-5" d="M834.48,263.23l-18.53-.25c-2.02-.86-4.15-2.39-5.54-3.64l-.03-12.29c-1.34.33-4.55,2.6-5.54,3.75l.09,14.6c.22.26,4.17,3.2,4.78,3.5,2.03,1.01,21.67.49,24.67.43l.1-6.09Z"/>
    <path class="cls-6" d="M317.08,339.61l3.13-.14c-.24-2.13-.29-8.91.29-10.76h56.44s-.13-3.84-.13-3.84h-59.99s.25,14.73.25,14.73Z"/>
    <polygon class="cls-6" points="461.77 317.1 467.43 317.13 467.38 272.1 461.83 272.12 461.77 317.1"/>
    <path class="cls-6" d="M810.95,197.77l.05,18.57c2.11.69,3.54,2.39,5.22,4.12l21.95.05c3.42,0,2.19-.97,2.42-4.64l4.93.06.02-17.76c-1.85-.19-3.85-.41-5.5.38l.42,20.06c-.05.68-.01.17-.12.83l-24.19.8c.64-1.58.73-25.2-.08-26.48-1.62.97-3.04,2.97-5.13,4"/>
    <polygon class="cls-6" points="773.66 182.72 784.1 182.72 784.18 160.96 773.56 161.77 773.66 182.72"/>
    <path class="cls-6" d="M483.94,275.3l31.09.12-.18-3.63-25.13-.04c-2.02-5.48.88-15.4-.64-20.89l-4.92.21-.23,24.24Z"/>
    <path class="cls-6" d="M951.11,237.92c2.31,10.21,18.59,7.35,16.36-3.68-.78-3.89-5.02-7.3-9.89-6.41-3.95.72-7.62,5.02-6.48,10.09"/>
    <path class="cls-5" d="M320.79,424.93l-.02-2.4,12.1.03.09-3.91-10.59-.09.16-29.43.28-.37c-.96.96-.65,1.05-.64,2.8,0,1.11.04,2.25.04,3.28l-5.15-.04c-.88,4.68-.45,24.27-.12,29.83l3.86.3Z"/>
    <path class="cls-5" d="M307.97,243c-1.43-1.22-5.93-6.34-6.9-8.09l5.49-4.76c1.31-1.27,1.68-1.35,2.8-2.37,1.42-1.3,1.23-1.23,2.82-2.25-.57-1.74.31-.77-1.3-1.11-1.02-.22-.77-.09-3.26,2.05l-7.51,6.21c-2.09,1.78-.49.96-3.79,3.09.24,2.75.74,2.1,2.16,3.48l14.06,17.11c.07.12.31.48.38.57.06.08.18.24.25.32.07.09.19.22.28.34.12-1.82,2.83-3.75,5.08-5.65l26.56-22.81c2.28-1.96,9.29-6.79,10.32-9.72-5.88,3.92-36.64,32.17-39.34,33.06-1.7-1.52-2.56-2.85-4.25-4.72-.85-.94-.98-1.28-1.99-2.31-.98-.99-1.37-1.16-1.86-2.44"/>
    <path class="cls-6" d="M700.77,257.22l5.37-.09-.15-38.11c-1.79-.2-3.93-.56-5.3.14l.08,38.05Z"/>
    <path class="cls-7" d="M810.93,172.08c3.4-.62,21.63-13.58,26.88-16.16-1.33-.55-19.31,1.76-23.77,1.98-3,.15-3.08-.19-3.18,2.68-.13,3.68.02,7.78.07,11.49"/>
    <path class="cls-6" d="M473.54,338.73l15.08.04-.13-6.04,4.79-.08c1.7-.39-.34.75.86-.41-2.68.77-11.82.46-15.01.19l-.04-18.47-5.57.37.02,24.39Z"/>
    <path class="cls-5" d="M700.42,268.73l25.89.04-.32-6.1-19.82-.16-.02-5.36-5.37.09c-.87,3.59-.07,7.77-.35,11.5"/>
    <path class="cls-5" d="M232.77,348.62l-.41,1.47c1.68.79,1.24-1.61,1.24,2.27l10.7.1.03-26.67-5.97.24-.21,22.57h-5.38Z"/>
    <polygon class="cls-6" points="872.81 284.84 878.39 284.76 878.37 253.81 872.83 253.83 872.81 284.84"/>
    <path class="cls-8" d="M840.07,193.3c.64,1.02.38.37.44,2.07.03.85-.05,2-.04,2.91l5.11-.02c-.1-5.97-.04-11.93-.04-17.86,0-3.58-.98-15.06.81-17.1-2.78.81-3.12,2.75-4.66,4.77-2.44,3.21-1.64,2.04-1.64,7.18,0,5.91.19,12.32.04,18.06"/>
    <path class="cls-8" d="M845.75,388.98c2.09,1.97,2.93,4.21,4.57,6.25l15.75.13c2.8-.17,2.72-1.67,5.22-4.91l1.52-2.27c-1.12-.53-10.79-.15-13.23-.15s-4.86,0-7.3.02c-4.59.04-7.02-.86-6.54.93"/>
    <path class="cls-6" d="M872.84,312.09l5.63.05-.08-27.38-5.58.08c-.33,1.04-.26,26.39.03,27.25"/>
    <path class="cls-6" d="M700.7,213.89l5.31-.12-.02,5.27.11-36.28,49.15.1c-11.61-.94-42.55.95-49.53-.61l.33,6.79-5.59-.36c.32,7.38-.6,18.51.25,25.22"/>
    <path class="cls-6" d="M813.23,387.44l-.12,2.02c1.14.46,2.92.3,4.41.25,5.27-.18,3.66-.07,4.02,1.36l.84-.48,3.25-.02c.14,2.31-.49,3.52.48,4.97,2.27-1.44-.58-12.18,1.1-15.54l-14.01-.31.04,7.75Z"/>
    <polygon class="cls-6" points="554.42 309.56 564.08 309.78 563.96 360.41 566.52 360.39 566.46 308.22 554.57 308.23 554.42 309.56"/>
    <polygon class="cls-6" points="479.13 308.22 494.22 308.1 494.13 309.88 496.4 309.83 496.42 303.92 501.95 303.61 486.93 303.72 486.94 291.42 481.34 291.46 481.47 307.97 479.13 308.22"/>
    <path class="cls-5" d="M327.07,426.74l.48,2.9,29.89-.09c.18-1.62-.19-3.32.79-4.49l-.34-1.3-17.78-.11v3.24s-13.04-.15-13.04-.15Z"/>
    <path class="cls-6" d="M258.34,426.12c1.91.69,38.13.81,41,.2-.77-1.86-.57-.89-1.1-3.2l-39.87.11-.03,2.9Z"/>
    <path class="cls-11" d="M258.34,426.12c1.91.69,38.13.81,41,.2-.77-1.86-.57-.89-1.1-3.2l-39.87.11-.03,2.9Z"/>
    <path class="cls-5" d="M233.6,352.36c0-3.88.44-1.48-1.24-2.27l-29.37.25.08,4.48,29.29-.1c.06-.17.38-1.29.4-1.32.74-1.39-.55.07.84-1.03"/>
    <path class="cls-7" d="M285.47,330.08c-.87.84-.68,5.86-.5,7.51.14,1.28.28,2.38,2.2,1.64,2.09-.81.35-1.58,1.26-3.15.89-1.54,5.68-.68,7.47-.71,5.94-.11,3.83-.53,5.26,2.91.2.48-.58.41.9.98,2.62,1,2.01-2.88,1.98-3.87-.03-1.13.14-2.98.06-3.92-.18-2.12-.49-1.83-2.58-1.86-2.56-.03-14.98-.56-16.06.48"/>
    <path class="cls-7" d="M300.56,289.37c-1.87.66-5.67.34-8.11.35-6.07.03-3.2-.41-4.63-3.76-3.5-.54-2.88.19-2.78,3.46.03,1.05-.02,2.03-.01,3.05l.23,1.98c.59,2.01,6.16.87,9.36.96l6.9.02c2.85-.11,2.56-.46,2.54-4.26,0-.3.74-8.25-2.49-5.12-.88.85-.47,1.95-1.01,3.33"/>
    <path class="cls-5" d="M810.9,226.75l.1-10.42-.05-18.57c-.64,1.68-.55,2.11-1.96,3.29-.87.73-1.7,1.41-2.53,2.18-1.49,1.37-1.17,1.75-1.16,4.19.12,18.89-1.55,12.22,5.6,19.33"/>
    <path class="cls-5" d="M437.24,226.69l.63-.94c1.74,2.48,2.11.71,3.53,2,.92,0,.58.17.52-.95.36-.67,1.22-2.3,1.61-2.91l7.01-.07-.08-2.81-6.45.02-.09-20.28-3.7-.27c.11,2.56.27,19.1-.31,21.41-.54,2.17-1.22,1.85-2.03,3.06-.66.99-.38.63-.65,1.74"/>
    <path class="cls-6" d="M878.47,312.14l-5.63-.05v6.66s11.65-.01,11.65-.01c.08-.09.14-.25.18-.32,1.04-1.65.09-.75.97-1.19l7.36-.07c-.08-2.15-.29-4.82.28-6.25-3.53.09-2.99,1.6-3.06,1.42-.03-.07-.08.22-.16.3l-9.05.03c-.55,0-1.07-.02-1.6-.13-1.04-.21-.35.04-.95-.38"/>
    <path class="cls-6" d="M810.88,243.92l-.49,3.12.03,12.29c1.38,1.25,3.52,2.79,5.54,3.64l.27-22.4c-2.23.93-3.34,2.35-5.35,3.34"/>
    <path class="cls-6" d="M878.39,230.62c-1.64.65-3.73.47-5.57.38l.05,18.9,5.52-.1v-19.18Z"/>
    <path class="cls-6" d="M600.05,309.93l20.83-.07-.53,9.34,2.64-.07c-.44-13.62,2.56-12.59-5.53-12.59-1.86,0-3.72,0-5.58,0-3.71,0-7.92-.19-11.56.11l-.27,3.28Z"/>
    <polygon class="cls-6" points="813.19 379.7 827.2 380.01 827.08 373.69 813.15 373.59 813.19 379.7"/>
    <path class="cls-7" d="M430.82,392.19l5.12-.05.15-15.13-5.67-.1c.02,3.69-.59,12.31.4,15.29"/>
    <path class="cls-6" d="M312.55,256.37l-14.06-17.11c-1.79-.2-2.21.33-3.1,1.1.28,2.1,2.25,3.42,3.63,5.17,1.61,2.03,10.28,12.35,11.9,13.06,1.26-.93,1.4-.47,1.63-2.22"/>
    <path class="cls-5" d="M201.35,334.51l.13-26.73c-3.29,4.21-3.39,5.96-3.4,11.7,0,4.86.1,9.83-.04,14.71l3.31.32Z"/>
    <polygon class="cls-7" points="320.79 424.93 320.89 426.79 327.07 426.74 340.12 426.89 340.11 423.65 333.09 423.38 332.95 418.65 332.86 422.56 320.76 422.53 320.79 424.93"/>
    <polygon class="cls-6" points="840.01 255.94 845.56 256.05 845.49 242.55 839.94 242.54 840.01 255.94"/>
    <path class="cls-7" d="M287.91,311.53c1.99.43,7.47.04,10.16.17,1.92.1,3.61.52,3.35-1.5-.25-1.9-4.22-7.22-9.65-4.72-2.37,1.09-4.55,3.81-3.86,6.05"/>
    <path class="cls-7" d="M301.26,313.69c-.73-.28-12.04-.4-13.45-.12-.54,3.32,2.94,6.49,6.8,6.52,3.79.03,7.47-3.69,6.65-6.4"/>
    <polygon class="cls-5" points="515.04 275.42 483.94 275.3 484.22 277.6 514.66 277.61 515.04 275.42"/>
    <polygon class="cls-5" points="673.2 409.94 685.5 409.77 685.61 403.66 677.11 403.54 673.2 409.94"/>
    <polygon class="cls-5" points="158.59 274.26 158.39 251.46 155.73 251.78 155.77 274.24 158.59 274.26"/>
    <path class="cls-6" d="M691.69,377.04l4.68-.1c.36-2.19.61-10.45-.11-12.08l-4.8.13.23,12.05Z"/>
    <path class="cls-7" d="M537.66,194.41c1.03.51,7.82-.05,10.15.02l-.07-5.64-10.05.18-.03,5.44Z"/>
    <path class="cls-10" d="M654.75,373.12h-8.84c-.71.82-.37-.56-.63,1.73-.06.52.04,1.97.04,2.6l11.13.03-.07-4.19-1.63-.17Z"/>
    <path class="cls-6" d="M312.89,345.68l.1,6.88,7.11-.05.25,6.05-.18-9.73c-4.89-.93-4.55,1.64-4.4-4.88l-2.66-.12-.21,1.84Z"/>
    <path class="cls-10" d="M685.76,319.92c-3.47,2.56.08,7.67,3.69,5.47,3.81-2.33.04-8.23-3.69-5.47"/>
    <path class="cls-10" d="M612.14,319.66c-3.98,1.84-1.29,7.36,2.49,6.04,3.99-1.4,1.78-8.01-2.49-6.04Z"/>
    <path class="cls-12" d="M612.14,319.66c-3.98,1.84-1.29,7.36,2.49,6.04,3.99-1.4,1.78-8.01-2.49-6.04Z"/>
    <path class="cls-5" d="M695.5,218.9l5.19.27c1.37-.7,3.51-.34,5.3-.14l.02-5.27-5.31.12-.36-.11.22,4.98-5.06.14Z"/>
    <path class="cls-6" d="M441.92,226.8c1.84.57,6.78.71,8.73-.03l-.2-2.83.09-.12-7.01.07c-.4.61-1.25,2.24-1.61,2.91"/>
    <polygon class="cls-4" points="605.24 387.95 598.96 388.08 599.01 391.76 605.27 391.9 605.24 387.95"/>
    <path class="cls-5" d="M732.95,306.42l7.5.05c-.58-1.56-.46-1.68-.14-3.32h-7.4s.04,3.27.04,3.27Z"/>
    <path class="cls-7" d="M289.7,337.32c.26,2.89.81,2.01,6.2,2.01,2.61,0,3.23.67,3.46-1.87-1.26-.57-8.31-.88-9.66-.14"/>
    <path class="cls-7" d="M289.68,286.17c.44,3,1.87,1.79,4.93,1.78.86,0,2.28.14,3.02.09,1.58-.12,1.54-.24,1.74-1.71-1.36-.81-8.31-1.24-9.7-.16"/>
    <path class="cls-5" d="M389.92,276.25l7.12-.35.09-3.63c-1.7.6-3.76.36-5.63.33l.18,2.67-1.76.98Z"/>
    <polygon class="cls-5" points="363.22 422.48 367.79 422.44 367.6 418.58 363.11 418.55 363.22 422.48"/>
    <path class="cls-4" d="M740.45,306.46l4.47.08.2-3.49-4.81.08c-.32,1.65-.43,1.76.14,3.32"/>
    <path class="cls-9" d="M750,406.48c-.53,1.78-.33,2.3.55,3.67l2.59-.09c1.96-3.1.2-5.13-3.14-3.58"/>
    <path class="cls-7" d="M674.44,303.16l31.11.12c1.09.48,12.24.03,15.47.22l.05,71.45c-1.73.7-4.32,1.91-5.83,2.81l-2.52,1.42c-.1.04-.22.08-.32.12l-6.08,2.88c-3.26,1.68-4.42,2.86-9.2,4.57-1.02,1.06-.47,4.05-.47,5.72,0,1.88-.32,4.54.33,6.02-.5-2.67-.7-8.19-.06-10.75,1.69-.7,75.05-.23,87.53-.23,8.82,0,22.04.46,28.77-.07l-.04-7.75-.04-6.1,13.94.1h17.01s-.14,10.78-.14,10.78l1.7.12c.42-2.16.36-7.02.16-9.35-.18-2.11-.07-5.33-.51-8.4l-32.05.19c-.35-2.31.34-4.86-.35-7.14l-.49.97c-1.24.53-2,2.63-2.75,3.59-.43.55-.92.95-1.47,1.54l-3.78,5.23c-1.27,1.48-1.43,1.49-2.31,3.61-4.8.94-74.19.52-79.91.4.55-1.17.63-1.29,1.29-2.13l2.08-2.64c.78-.96.13-.05.75-1.01.41-.64.65-1.2,1.07-1.87l5.38-7.17.17-54.01-.04-3.27h7.4s4.81-.09,4.81-.09c1.15-.4.58-4.12.57-5.47l.02-18.89c-.52-.54.78-.62-.86-.43.26,2.53.3-.5-2.28,3.17l-8.02,10.04c-2.01,1.51-8.42.55-11.47.55-10.06,0-55.68-.4-60.09.09.07.31-6.45,4.47-5.95,5.71,2.46,6.05,15.97,17.59,17.25,18.46,1.34.91-1.17-13.56.17-13.11"/>
    <path class="cls-7" d="M555.34,302.98l1.99.83s1.6,0,1.73,0l10.41-.04-.06,56.64,5.54,8.02c.05.07.13.18.18.25.07.1.66.97.69,1,1.21,1.52,3.37,3.34,4.32,6-4.18.57-76.53.46-80.31-.12-1.05-1.76-.28-1.11-2.2-3.65l-6.95-8.89c-1.41-1.59.13-.87-2.09-1.9l-.02,4.7-3.84.02-.04,14.47,3.91.03-.12,7.64,110.49.1,6.28-.14c-.44-.6.19.32-.37-.73l-.34.15-22.8-11.56c-.72-.96-.4-7.27-.39-8.67v-27.05c0-11.56.6-24.84-.08-36.19l15.04-.03,29.87-.08-.45,12.26c.97.54-.85.47,1.67.4l-.3-1.07c3.19-2.11,4.25-4.28,6.42-6.45l5.21-5.11c1.18-.92,4.24-3.77,4.8-5.36-.44-.78-.88-1.35-1.31-2.01-.13-.2-.51-.79-.71-1.05-.39-.51-.26-.26-.8-.96-1.76-2.29-.77-2.2-3.92-1.92l-67.46.1c-2.62-.2-2.69-1.71-3.85-3.16l-7.77-9.42c-.51-.53-1.25-1.02-1.58-1.28,0,4.15-.25,8.21-.25,12.41l.09,9.49c-.06,2.9-.55,2.26-.63,2.34"/>
    <polygon class="cls-10" points="556.14 278.75 555.22 303.88 626.18 303.79 625.73 316.05 674.28 316.28 675.1 303.06 746.11 303.28 745.7 278.18 556.14 278.75"/>
    <path class="cls-7" d="M627.39,316.45l7.33-.02c1.44-2.2-.7-1.65,7.21-1.65h18.89c1.1,0,3.84-.16,4.73,0,2,.36.16-.22,2.42,1.51l.49.33c1.45-.1,3.61.04,4.85-.13,2.33-.32,1.27-.92,1.66-3.29-.82-1.96-.62-7.36-.52-10.04-1.33-.45,1.17,14.02-.17,13.11-.74-.5-14.77-16.64-16.27-18.03-1.63-1.52,5.16-5.19,4.96-6.13,4.41-.49,50.04-.09,60.09-.09,3.05,0,9.47.96,11.47-.55l8.02-10.04c2.58-3.67,2.54-.64,2.28-3.17l-95.8-.09h-12.55s-25.95.05-25.95.05l-5.81-.03c-8.21.02-16.43,0-24.64,0-2.15,0-22.47-.58-23.97.56.33.27,1.07.76,1.58,1.28l7.77,9.42c1.16,1.46,1.22,2.96,3.85,3.16l67.46-.1c3.15-.28,2.15-.37,3.92,1.92.54.7.42.45.8.96.2.26.58.85.71,1.05.43.66.87,1.23,1.31,2.01-.56,1.59-3.62,4.45-4.8,5.36l-5.21,5.11c-2.17,2.18-3.23,4.34-6.42,6.45l.3,1.07Z"/>
    <path class="cls-4" d="M674.96,313.21c-.39,2.36.67,2.97-1.66,3.29-1.24.17-3.39.02-4.85.13l-1.14.29-.38,6.45c-1.24.56-3.7.37-5.51.27l.03,6.13-8.33.22c0,5.76,1.8,2.78,2.2,6.29.65,5.68-8.08,6.11-8.29.8-.11-2.87.89.04,1.14-7.33-2.24.11-4.43.09-6.67.08-1.66,0-4.6-.45-5.99.52l5.76,1.81c.29.92-.27,2.92-.22,4.51.11,4.22,2.6,7.5,6.3,9.21l-3.37,14.27-7.51-2.03-20.66-.16.1-27.3c1.59-.76,2.81-1.29,3.95-2.79,1.83-2.4-.04-3.7,3.07-3.45l.2,4.87,3.69-.1c.65-1.28-.16-1.23,1.74-1.18l1.12-.35v-4.99s-9.43.04-9.43.04l.12-3.48c-1.42-1.72-2.91-3.58-6.32-3.77-3.02-.17-5.2,1-6.68,2.92-1.52,1.98-2.25,5.26-1,7.98,1.11,2.4,2.27,2.87,4.91,4.31l-.14,26.32-10.99-.13-.08-46.9-3.34-.29-.17,49.37c1.88-.25,5.63-.43,7.46.14l.63.33-.09,27.88.34-.15c.62-1.03.33-1.52.3-3.1l5.54.19.05-5.83c1.12-.93,3.91-.47,5.61-.51-.5-5.29-.84-8.33-.51-14.27l29.96.08.09,9.34h8.84s.16-9.43.16-9.43h30.56s-.04,14.2-.04,14.2l5.53.14.27.74c.02.11.08.26.1.39l.07,6.44c0,2.5-.04,5.49.16,7.65l.14-16.2-1.72-.14.03-12.97,2.18-.65-.02-4.93-2.22-.65.13-27.05c4.06-1.86,6.35-4.68,4.93-10.21-.62-2.41.81-3.5,2.07-5.48.75-1.17,2.27-3.37,2.82-4.84-.21-1.27-.4-.85-1.86-.84-1.77.81-3.86,5.76-5.45,7.62-2.27-.91-4.67-2.28-7.93-.96-2.78,1.13-2.41,3.39-5.85,3.22l-.26-9.55-3.39-.39-.19,3.99ZM612.14,319.66c4.27-1.97,6.49,4.64,2.49,6.04-3.79,1.33-6.47-4.2-2.49-6.04ZM685.76,319.92c3.74-2.76,7.5,3.14,3.69,5.47-3.61,2.21-7.16-2.9-3.69-5.47ZM675.78,329.26l3-.05v-4.76c1.2.35.5-.06,1.26.73.29.29.4.68.61,1.14,1.19,2.64,4.51,4.53,4.52,4.52.05-.09.2.15.29.24,0,6.23.82,21.8-.2,27.01l-21.46-.05-5.56.91c-.67-1.52-3.2-12.38-2.94-14.12,7.82-4.69,5.49-9.64,5.5-13.68l13.75-4.18,1.23,2.3Z"/>
    <path class="cls-7" d="M610.71,384.31l.05,19.18,17.27.09,49.07-.04,8.5.12,5.38.19-.05-25.81c-5.13.65-14.62.04-20.26.04-6.73,0-13.45.06-20.18.06-6.62,0-35.64-.88-39.75.34l-.05,5.83Z"/>
    <path class="cls-6" d="M696.99,398.5l3.99.13.12,6.02,11.74-.02-.04-6.02,32.6.04.86,2.2h6.01c.75-.96.49-1.05.86-2.15l30.91-.04c6.2,6.59,15.02,6.88,24.04,3.3.8-.77,1.47-.79,2.51-1.82,1.04-1.03.81-1.34,2.69-1.54l.22-3.28,8.07-.03-.03-4.22c-.35-1.43,1.25-1.53-4.02-1.36-1.49.05-3.27.21-4.41-.25l.12-2.02c-6.73.53-19.95.07-28.77.07-12.48,0-85.84-.47-87.53.23-.64,2.56-.44,8.07.06,10.75"/>
    <path class="cls-10" d="M697.12,386.75c4.78-1.71,5.94-2.89,9.2-4.57l6.08-2.88c.1-.04.22-.08.32-.12l2.52-1.42c1.51-.9,4.1-2.1,5.83-2.81l-.05-71.45c-3.23-.19-14.38.26-15.47-.22l.02,55.43-8.14.24-.3,27.8Z"/>
    <path class="cls-10" d="M604.54,387.37l.09-27.88-8.46-.33.14-55.29-15.04.03c.68,11.35.08,24.63.08,36.19v27.05c0,1.39-.32,7.71.4,8.67l22.8,11.56Z"/>
    <path class="cls-6" d="M489.17,394.25c-1.14.77-2.25.57-3.94.55h-11.63s.03,7.2.03,7.2l130.96.04c1.11-1.79.65-7.26.58-9.69-4.54-.23-2.07.35-7.03-.57l-107.42-.09c-2,.54-1.82-.15-1.54,2.57"/>
    <path class="cls-10" d="M488.57,361.13c2.22,1.03.68.3,2.09,1.9l6.95,8.89c1.92,2.54,1.15,1.89,2.2,3.65,3.78.58,76.13.69,80.31.12-.94-2.66-3.11-4.47-4.32-6-.03-.04-.62-.91-.69-1-.05-.07-.13-.18-.18-.25l-5.54-8.02-2.9-.03-2.56.02h-74.72s-.95.31-.95.31l.28.42Z"/>
    <path class="cls-6" d="M698.03,309.28c1.46-.01,1.64-.43,1.86.84,1.04-.47.8-.2.85,1.56.4,13.71-.46,30.8-.02,45.3l-4.2.04-.26,7.85c.07.15.12.42.17.68.4,0,.7.15.92.37l.08-6.97,8.14-.24-.02-55.43-31.11-.12c-.1,2.68-.31,8.08.52,10.04l.19-3.99,3.39.39.25-3.32,20.35.12-1.11,2.87Z"/>
    <path class="cls-6" d="M784.03,398.66l-30.91.04c-.37,1.11-.11,1.2-.86,2.16h-6.01s-.86-2.2-.86-2.2l-32.6-.04.04,6.02-11.74.02-.12-6.02-3.99-.13c-.65-1.48-.34-4.14-.33-6.02,0-1.67-.55-4.65.47-5.72l.2-18.77c-.17.16-.39.26-.65.31.11,3.09-.07,7.2-.31,8.65l-4.68.1-.14,16.2c-.2-2.15-.16-5.15-.16-7.65l-.07-6.44c-.02-.13-.08-.28-.1-.39l-.27-.74.05,25.81-.05.96h4.47s.19,6,.19,6l11.59-.08-.19-5.55,32.37-.51c.5.57.84.98.86,2.23h6.87c.22-.56.18-.8.32-1.16.34-.88.14-.53.54-1.09l26.62.02c5.35-.07,3.22.27,6.34,2.47,3.63,2.57,9.25,3.68,14.67,2.9,8.49-1.21,7.87-4.12,11.88-5.57l.59-2.52c-9.02,3.58-17.84,3.28-24.04-3.3Z"/>
    <path class="cls-9" d="M650.23,425.1c.87-2.28,9.44-.1,11.54-1.15,1.05-.85,3.38-4.24,3.7-5.88l-8.96-.04-1.54,2.97c-1.17,1.53-5.14,3.32-7.44-1.93-.05-.11-.1-.23-.15-.33l-11.83-.7-7.53-14.45-17.27-.09-.05-19.18-5.54-.19c.02,1.58.32,2.07-.3,3.1.55,1.05-.07.13.37.73l.02,3.96-3.5-.08c-.01.17-.05.33-.11.49.65.02,1.04-.1,3.51.03.06,2.43.52,7.9-.58,9.69,1.26,1.29.66,5.46.58,7.7l17.71.91c.05.07.12.18.17.26.27.43.21.39.45.84l6.55,12.33c2.11.08,4.19.08,6.3.07,5.68-.02,4.91-.61,5.75.95-.1.08-.25.16-.34.2l-1.11.42c-2.32.47-7.05-.82-8.27.67,1.58,1.65,8.5-.09,11.02,1.1,1.7.8,2.02,1.82,4.56.68,2.23-1,1.37-1.21,4.71-1.22,3.86-.01,7.74.02,11.6.02,1.89,0,9.92.56,10.85-.58-2.23-2.41-22.51,1.16-24.87-1.29Z"/>
    <path class="cls-6" d="M599.09,391.76h-.08s-.05-3.67-.05-3.67l-110.49-.1.12-7.64-3.91-.03.04-14.47c-1.42.85-.67.38-1.81.85l.17,5.28h-3.96s.1,14.4.1,14.4l3.82.1-.08,7.68,6.22.07c-.28-2.72-.46-2.03,1.54-2.57l107.42.09c.37.07.69.13.98.18,0-.06-.03-.13-.03-.19Z"/>
    <path class="cls-10" d="M812.42,360.88c-12.43.76-27.29.05-39.99.05-1.9,0-37.81.71-39.66-.51l-5.38,7.17c-.41.68-.66,1.23-1.07,1.87-.62.96.03.05-.75,1.01l-2.08,2.64c-.66.85-.74.96-1.29,2.13,5.71.12,75.11.53,79.91-.4.88-2.12,1.04-2.13,2.31-3.61l3.78-5.23c.55-.6,1.04-.99,1.47-1.54.75-.97,1.51-3.07,2.75-3.59"/>
    <path class="cls-10" d="M665.48,418.06c3.1-.05,3.13-1.66,4.46-3.6.99-1.45,2.2-3.87,3.26-4.52l3.91-6.4-49.07.04,7.53,14.45,11.83.7c.04.1.1.22.15.33,2.29,5.25,6.26,3.46,7.44,1.93l1.54-2.97,8.96.04Z"/>
    <path class="cls-6" d="M604.62,359.49l-.63-.33c-1.83-.58-5.58-.39-7.46-.14l.17-49.37,3.34.29.27-3.28c3.64-.3,7.85-.11,11.56-.11,1.86,0,3.72,0,5.58,0,8.08,0,5.09-1.03,5.53,12.59l-2.64.07-.12,3.48,9.42-.04v4.99s-1.11.35-1.11.35l3.22,1.18c1.54.4,2.25.83,3.75,1.17,1.39-.98,4.33-.53,5.99-.52,2.24,0,4.43.02,6.67-.08v-3.6s4.92-.23,4.92-.23l.04,4.07,8.33-.22-.03-6.13-26.1-.11-.44-6.78c-.02-.18-.1-.22-.17-.31l-7.33.02c-2.52.08-.69.14-1.67-.4l.45-12.26-29.87.08-.14,55.29,8.46.33Z"/>
    <path class="cls-5" d="M554.49,309.95l-.07-.39.15-1.32h11.89s.06,52.16.06,52.16l2.9.03.06-56.64-10.41.04c-.13,0-1.71,0-1.73,0l-1.99-.83-.91-.8c-.58-2.29-.07-14.53-.05-17.86l-3.73.13-.13,20.02c.03,4.91-.03,2.88-.69,5.3l4.66.19Z"/>
    <path class="cls-10" d="M634.72,316.43c.07.09.15.13.17.31l.44,6.78,26.1.11c1.81.1,4.26.29,5.51-.27l.38-6.45,1.14-.29-.49-.33c-2.26-1.74-.43-1.15-2.42-1.51-.89-.16-3.63,0-4.73,0h-18.89c-7.91,0-5.76-.55-7.21,1.65"/>
    <polygon class="cls-6" points="554.42 309.56 564.08 309.78 563.96 360.41 566.52 360.39 566.46 308.22 554.57 308.23 554.42 309.56"/>
    <path class="cls-6" d="M600.05,309.94l20.83-.07-.53,9.34,2.64-.07c-.44-13.62,2.56-12.59-5.53-12.59-1.86,0-3.72,0-5.58,0-3.71,0-7.92-.19-11.56.11l-.27,3.28Z"/>
    <polygon class="cls-6" points="673.2 409.94 685.5 409.77 685.61 403.66 677.11 403.54 673.2 409.94"/>
    <path class="cls-6" d="M691.69,377.05l4.68-.1c.36-2.19.61-10.45-.11-12.08l-4.8.13.23,12.05Z"/>
    <path class="cls-10" d="M654.75,373.12h-8.84c-.71.82-.37-.56-.63,1.73-.06.52.04,1.97.04,2.6l11.13.03-.07-4.19-1.63-.17Z"/>
    <path class="cls-10" d="M685.76,319.92c-3.47,2.56.08,7.67,3.69,5.47,3.81-2.33.04-8.23-3.69-5.47"/>
    <path class="cls-10" d="M612.14,319.66c-3.98,1.84-1.29,7.36,2.49,6.04,3.99-1.4,1.78-8.01-2.49-6.04Z"/>
    <path class="cls-12" d="M612.14,319.66c-3.98,1.84-1.29,7.36,2.49,6.04,3.99-1.4,1.78-8.01-2.49-6.04Z"/>
    <polygon class="cls-4" points="605.24 387.95 598.96 388.09 599.01 391.76 605.27 391.91 605.24 387.95"/>
    <path class="cls-5" d="M732.95,306.42l7.5.05c-.58-1.56-.46-1.68-.14-3.32h-7.4s.04,3.27.04,3.27Z"/>
    <path class="cls-4" d="M740.45,306.47l4.47.08.2-3.49-4.81.08c-.32,1.65-.43,1.76.14,3.32"/>
    <path class="cls-9" d="M750,406.48c-.53,1.78-.33,2.3.55,3.67l2.59-.09c1.96-3.1.2-5.13-3.14-3.58"/>
  </g>
  <g>
    <path d="M174.61,547.73h-1.48c.04-.19.05-.47.05-.69,0-.98-.48-1.53-1.71-1.94l-.74-.24-10.56,3.9v-1.89l8.79-2.92v-.03l-8.79-2.92v-1.86l11.29,4.15c2.47.9,3.21,1.78,3.21,3.68,0,.21-.02.57-.06.76Z"/>
    <path d="M170.81,538.48c0,.3-.06.51-.11.63h-1.59c.03-.09.08-.28.08-.54,0-1.04-1.23-1.44-3.17-1.57l-5.85-.41v-6.91h10.55v1.75h-9.1v3.59l4.44.33c2.91.21,4.75.91,4.75,3.13Z"/>
    <path d="M169.67,526.95c-.65,0-1.16-.51-1.16-1.16s.51-1.16,1.16-1.16,1.16.51,1.16,1.16-.51,1.16-1.16,1.16Z"/>
    <path d="M163.4,518.95c-4.6,0-7.56-2.59-7.56-6.6,0-3.12,1.85-5.5,4.66-6.04v1.87c-1.81.53-2.97,2.16-2.97,4.17,0,2.86,2.31,4.72,5.88,4.72s5.88-1.84,5.88-4.73c0-2.08-.96-3.58-2.64-4.16v-1.87c2.78.72,4.32,2.87,4.32,6.04,0,4.04-2.93,6.6-7.57,6.6Z"/>
    <path d="M170.72,494.89v9.07h-14.64v-9.07h1.64v7.25h4.7v-6.87h1.62v6.87h5.03v-7.25h1.64Z"/>
    <path d="M151.96,488.34c1.14,0,2.03-.79,2.03-1.9s-.89-1.9-2.03-1.9v-1.25c1.79,0,3.03,1.29,3.03,3.15s-1.25,3.15-3.03,3.15v-1.25ZM159.07,482.39v.16l11.65,7.92v1.81h-14.64v-1.81h11.69v-.16l-11.69-7.92v-1.81h14.64v1.81h-11.65Z"/>
    <path d="M163.35,478.2c-3.59,0-5.93-2.5-6.04-6.47h-1.43v-1.81h1.43c.09-3.97,2.44-6.46,6.05-6.46s5.93,2.5,6.04,6.46h1.53v1.81h-1.53c-.09,3.97-2.44,6.47-6.05,6.47ZM158.94,469.92h8.82c-.11-2.85-1.8-4.62-4.4-4.62s-4.32,1.77-4.41,4.62ZM158.94,471.72c.11,2.86,1.8,4.63,4.4,4.63s4.32-1.77,4.41-4.63h-8.82Z"/>
    <path d="M170.69,461.35h-1.64c.05-.2.08-.5.08-.81,0-1.1-.46-1.82-1.53-2.39l-11.52,5v-1.95l9.49-3.93v-.16l-9.49-3.84v-1.9l10.45,4.49c3.25,1.39,4.29,2.53,4.29,4.68,0,.33-.05.65-.13.81Z"/>
    <path d="M170.72,441.36h-13v5.35l7.52.47c3.9.24,5.57,1.37,5.57,3.73,0,.26-.04.53-.1.71h-1.63c.03-.11.06-.38.06-.55,0-1.39-1.14-2.01-3.97-2.17l-9.09-.53v-8.84h14.64v1.83Z"/>
    <path d="M170.72,427.24h-13v5.35l7.52.47c3.9.24,5.57,1.37,5.57,3.73,0,.26-.04.53-.1.71h-1.63c.03-.11.06-.38.06-.55,0-1.39-1.14-2.01-3.97-2.17l-9.09-.53v-8.84h14.64v1.83Z"/>
    <path d="M159.07,412.49v.16l11.65,7.92v1.81h-14.64v-1.81h11.69v-.16l-11.69-7.92v-1.81h14.64v1.81h-11.65Z"/>
    <path d="M170.72,397.77h-6.67v8.04h6.67v1.83h-14.64v-1.83h6.33v-8.04h-6.33v-1.83h14.64v1.83Z"/>
    <path d="M166.53,384.85v5.82l4.19,1.47v1.92l-14.64-5.4v-1.81l14.64-5.4v1.92l-4.19,1.47ZM164.98,390.13v-4.75l-6.68,2.34v.06l6.68,2.34Z"/>
  </g>
  <g>
    <path d="M336.09,461.98v-1.48c.19.04.47.05.69.05.98,0,1.53-.48,1.94-1.7l.24-.74-3.9-10.56h1.89l2.92,8.79h.03l2.92-8.79h1.86l-4.15,11.29c-.9,2.47-1.78,3.21-3.68,3.21-.21,0-.57-.02-.76-.06Z"/>
    <path d="M345.33,458.18c-.3,0-.51-.06-.63-.11v-1.59c.09.03.28.08.54.08,1.04,0,1.44-1.23,1.57-3.17l.41-5.85h6.91v10.55h-1.75v-9.1h-3.59l-.33,4.44c-.21,2.91-.91,4.75-3.13,4.75Z"/>
    <path d="M356.86,457.04c0-.65.51-1.16,1.16-1.16s1.16.51,1.16,1.16-.51,1.16-1.16,1.16-1.16-.51-1.16-1.16Z"/>
    <path d="M364.86,450.76c0-4.6,2.59-7.56,6.6-7.56,3.12,0,5.5,1.85,6.04,4.66h-1.87c-.53-1.81-2.16-2.97-4.17-2.97-2.86,0-4.72,2.31-4.72,5.88s1.84,5.89,4.73,5.89c2.08,0,3.58-.96,4.16-2.64h1.87c-.72,2.78-2.87,4.32-6.04,4.32-4.04,0-6.6-2.93-6.6-7.57Z"/>
    <path d="M387.9,453.9h-5.82l-1.47,4.19h-1.92l5.4-14.64h1.81l5.4,14.64h-1.92l-1.47-4.19ZM382.61,452.35h4.75l-2.34-6.68h-.06l-2.34,6.68Z"/>
    <path d="M395.05,458.09v-13h-4.62v-1.64h11.06v1.64h-4.62v13h-1.83Z"/>
    <path d="M413.3,458.09v-12.98h-7.83v12.98h-1.84v-14.64h11.48v14.64h-1.81Z"/>
    <path d="M426.2,453.9h-5.82l-1.47,4.19h-1.92l5.4-14.64h1.81l5.4,14.64h-1.92l-1.47-4.19ZM420.91,452.35h4.75l-2.34-6.68h-.06l-2.34,6.68Z"/>
    <path d="M440.54,458.09h-9.07v-14.64h9.07v1.64h-7.25v4.7h6.87v1.62h-6.87v5.03h7.25v1.64Z"/>
    <path d="M443.15,458.09v-14.64h5.55c2.51,0,4.2,1.46,4.2,3.65,0,1.52-1.12,2.94-2.53,3.2v.08c1.99.25,3.27,1.65,3.27,3.6,0,2.58-1.85,4.11-4.96,4.11h-5.53ZM444.98,449.76h2.74c2.16,0,3.34-.86,3.34-2.45,0-1.45-.99-2.25-2.77-2.25h-3.31v4.7ZM448.41,456.48c2.2,0,3.36-.89,3.36-2.59s-1.2-2.56-3.53-2.56h-3.26v5.14h3.43Z"/>
    <path d="M463.97,453.9h-5.82l-1.47,4.19h-1.92l5.4-14.64h1.81l5.4,14.64h-1.92l-1.47-4.19ZM458.68,452.35h4.75l-2.34-6.68h-.06l-2.34,6.68Z"/>
  </g>
  <g>
    <path d="M51.58,61.75v-20.06h5.89v8.51h.11l6.2-8.51h6.19l-6.6,8.91,6.91,11.15h-6.85l-4.38-7.37-1.57,2.11v5.25h-5.89Z"/>
    <path d="M70.36,57.29c0-2.95,2.27-4.55,6.37-4.8l3.36-.21v-.75c0-1.03-.78-1.58-1.85-1.58-1.17,0-1.92.64-2,1.42h-5.09c.14-3.28,2.92-5.35,7.39-5.35s7.1,2.13,7.1,5.24v10.5h-5.56v-2.06h-.11c-.81,1.5-2.67,2.28-4.45,2.28-2.79,0-5.17-1.92-5.17-4.68ZM80.09,56.33v-1l-2.42.17c-1.08.08-1.7.6-1.7,1.35,0,.83.68,1.32,1.68,1.32,1.27,0,2.43-.71,2.43-1.83Z"/>
    <path d="M87.54,58.86l6.85-8.12v-.11h-6.63v-4.23h13.3v3.38l-6.01,7.63v.11h6.31v4.23h-13.83v-2.89Z"/>
    <path d="M112.94,62.1c-6.37,0-10.13-3.74-10.13-10.4s3.77-10.36,9.95-10.36c5.03,0,8.79,2.96,9.23,7.08h-5.8c-.39-1.47-1.71-2.43-3.41-2.43-2.5,0-3.98,2.06-3.98,5.63s1.68,5.84,4.27,5.84c1.92,0,3.28-1.07,3.45-2.68l.03-.28h-3.06v-3.92h8.73v2.64c0,5.49-3.46,8.88-9.29,8.88Z"/>
    <path d="M139.45,56.77c-.47,3.31-3.36,5.37-7.58,5.37-5.03,0-8.02-2.99-8.02-7.98s3.02-8.15,7.84-8.15,7.83,3.03,7.83,7.73v1.54h-10.18v.36c0,1.5,1.08,2.59,2.61,2.59,1.15,0,2.08-.54,2.42-1.46h5.07ZM129.43,52.2h4.78c-.1-1.38-1.06-2.27-2.39-2.27s-2.28.94-2.39,2.27Z"/>
    <path d="M141.26,46.4h5.56v3.02h.11c.58-2.18,1.76-3.24,3.59-3.24.51,0,.96.08,1.33.22v4.78c-.49-.21-1.07-.32-1.65-.32-2.14,0-3.24,1.1-3.24,3.24v7.65h-5.7v-15.35Z"/>
    <path d="M167.29,61.75h-13.76v-20.06h5.89v15.37h7.87v4.68Z"/>
    <path d="M168.81,54.06c0-5.05,3.14-8.05,8.06-8.05s8.08,2.98,8.08,8.05-3.06,8.08-8.08,8.08-8.06-2.89-8.06-8.08ZM179.16,54.08c0-2.5-.89-3.99-2.29-3.99s-2.28,1.49-2.28,3.99.85,3.99,2.28,3.99,2.29-1.42,2.29-3.99Z"/>
    <path d="M186.66,62.67h5.48c.17.74,1.07,1.27,2.35,1.27,1.7,0,2.52-.88,2.52-2.17v-2.95h-.11c-.5,1.61-2.29,2.74-4.59,2.74-3.59,0-5.99-2.71-5.99-7.52s2.25-7.85,6.08-7.85c2.24,0,3.91,1.27,4.5,2.99h.11v-2.77h5.7v15.22c0,3.66-3.41,5.91-8.34,5.91-4.66,0-7.46-2.02-7.7-4.87ZM197.03,54.09c0-2.18-.92-3.52-2.45-3.52s-2.43,1.33-2.43,3.5.89,3.36,2.43,3.36,2.45-1.14,2.45-3.35Z"/>
    <path d="M204.85,46.4h5.7v15.35h-5.7v-15.35ZM204.86,42.86c0-1.53,1.22-2.7,2.84-2.7s2.84,1.17,2.84,2.7-1.22,2.7-2.84,2.7-2.84-1.17-2.84-2.7Z"/>
    <path d="M219.61,46.01c4.48,0,7.16,2,7.16,5.35h-5.17c0-1-.79-1.63-2.03-1.63-1.03,0-1.7.42-1.7,1.06,0,.47.5.82,1.49,1l3.46.68c3.04.6,4.41,1.9,4.41,4.24,0,3.34-3,5.42-7.49,5.42-4.8,0-7.46-2.1-7.66-5.37h5.5c.11,1.01.94,1.64,2.22,1.64,1.11,0,1.78-.38,1.78-1.01,0-.49-.4-.76-1.45-.96l-2.96-.58c-3.1-.61-4.75-2.25-4.75-4.68,0-3.2,2.71-5.16,7.19-5.16Z"/>
    <path d="M235.84,43.04v3.36h2.7v4.13h-2.7v5.67c0,.96.56,1.46,1.72,1.46.43,0,.64-.01.97-.07v3.95c-.54.11-1.27.21-2.35.21-4.34,0-6.05-1.25-6.05-4.28v-6.94h-2.03v-4.13h2.03v-3.36h5.7Z"/>
    <path d="M240.41,46.4h5.7v15.35h-5.7v-15.35ZM240.43,42.86c0-1.53,1.22-2.7,2.84-2.7s2.84,1.17,2.84,2.7-1.22,2.7-2.84,2.7-2.84-1.17-2.84-2.7Z"/>
    <path d="M258.14,52.76c-.11-1.56-.97-2.5-2.2-2.5-1.5,0-2.31,1.33-2.31,3.81s.79,3.84,2.31,3.84c1.28,0,2.1-.89,2.2-2.4h5.18c-.06,4.16-2.89,6.64-7.45,6.64-4.98,0-8.01-3.02-8.01-8.08s3.04-8.05,7.98-8.05c4.46,0,7.41,2.59,7.48,6.74h-5.18Z"/>
    <path d="M271.93,46.01c4.48,0,7.16,2,7.16,5.35h-5.17c0-1-.79-1.63-2.03-1.63-1.03,0-1.7.42-1.7,1.06,0,.47.5.82,1.49,1l3.46.68c3.04.6,4.41,1.9,4.41,4.24,0,3.34-3,5.42-7.49,5.42-4.8,0-7.46-2.1-7.66-5.37h5.5c.11,1.01.94,1.64,2.22,1.64,1.11,0,1.78-.38,1.78-1.01,0-.49-.4-.76-1.45-.96l-2.96-.58c-3.1-.61-4.75-2.25-4.75-4.68,0-3.2,2.71-5.16,7.19-5.16Z"/>
    <path d="M281.4,61.75v-20.06h14.1v4.68h-8.2v3.85h7.42v4.42h-7.42v7.1h-5.89Z"/>
    <path d="M296.6,54.06c0-5.05,3.14-8.05,8.06-8.05s8.08,2.98,8.08,8.05-3.06,8.08-8.08,8.08-8.06-2.89-8.06-8.08ZM306.96,54.08c0-2.5-.89-3.99-2.29-3.99s-2.28,1.49-2.28,3.99.85,3.99,2.28,3.99,2.29-1.42,2.29-3.99Z"/>
    <path d="M314.5,46.4h5.56v3.02h.11c.58-2.18,1.76-3.24,3.59-3.24.51,0,.96.08,1.33.22v4.78c-.49-.21-1.07-.32-1.65-.32-2.14,0-3.24,1.1-3.24,3.24v7.65h-5.7v-15.35Z"/>
    <path d="M342.09,61.75h-5.56v-3.02h-.11c-.61,2.09-2.04,3.32-4.34,3.32-3.29,0-5.71-2.15-5.71-5.81v-9.84h5.7v8.56c0,1.63.88,2.49,2.21,2.49s2.11-.99,2.11-2.47v-8.58h5.7v15.35Z"/>
    <path d="M344.24,46.4h5.56v3.1h.11c.57-2.07,2.29-3.41,4.39-3.41,2.33,0,3.89,1.22,4.27,3.38h.11c.51-2.03,2.38-3.38,4.71-3.38,2.99,0,5.05,2.15,5.05,5.28v10.37h-5.7v-8.9c0-1.46-.63-2.18-1.86-2.18-1.15,0-1.83.82-1.83,2.17v8.91h-5.41v-8.88c0-1.46-.62-2.2-1.85-2.2-1.15,0-1.85.83-1.85,2.17v8.91h-5.7v-15.35Z"/>
  </g>
  <g>
    <path d="M1048.84,263.69h1.48c-.04.19-.05.47-.05.69,0,.98.48,1.53,1.71,1.94l.74.24,10.56-3.9v1.89l-8.79,2.92v.03l8.79,2.92v1.86l-11.29-4.15c-2.47-.9-3.21-1.78-3.21-3.68,0-.21.02-.57.06-.76Z"/>
    <path d="M1052.63,272.94c0-.3.06-.51.11-.63h1.59c-.03.09-.08.28-.08.54,0,1.04,1.23,1.44,3.17,1.57l5.85.41v6.91h-10.55v-1.75h9.1v-3.59l-4.44-.33c-2.91-.21-4.75-.91-4.75-3.13Z"/>
    <path d="M1053.78,284.47c.65,0,1.16.51,1.16,1.16s-.51,1.16-1.16,1.16-1.16-.51-1.16-1.16.51-1.16,1.16-1.16Z"/>
    <path d="M1052.72,298.37v-5.33h14.64v8.55h-1.64v-6.73h-4.19v3.48c0,2.75-1.82,4.71-4.41,4.71s-4.39-1.94-4.39-4.69ZM1054.37,297.89c0,2.1.98,3.29,2.75,3.29s2.77-1.2,2.77-3.29v-3.02h-5.52v3.02Z"/>
    <path d="M1056.92,313.44v-5.82l-4.19-1.47v-1.92l14.64,5.4v1.81l-14.64,5.4v-1.92l4.19-1.47ZM1058.47,308.15v4.75l6.68-2.34v-.06l-6.68-2.34Z"/>
    <path d="M1064.37,328.59v-.16l-11.65-7.92v-1.81h14.64v1.81h-11.69v.16l11.69,7.92v1.81h-14.64v-1.81h11.65ZM1071.49,322.65c-1.14,0-2.03.79-2.03,1.9s.89,1.9,2.03,1.9v1.25c-1.79,0-3.03-1.29-3.03-3.15s1.25-3.15,3.03-3.15v1.25Z"/>
    <path d="M1052.72,337.15h13v-4.62h1.64v11.06h-1.64v-4.62h-13v-1.83Z"/>
    <path d="M1052.75,346.36h1.64c-.05.2-.08.5-.08.81,0,1.1.46,1.82,1.53,2.39l11.52-5v1.95l-9.49,3.93v.16l9.49,3.84v1.9l-10.45-4.49c-3.25-1.39-4.29-2.53-4.29-4.68,0-.33.05-.65.13-.81Z"/>
    <path d="M1067.37,363.34c0,2.75-1.93,4.69-4.7,4.69s-4.72-1.96-4.72-4.71v-3.38h-5.23v-1.83h14.64v5.23ZM1059.57,359.94v2.92c0,2.09,1.15,3.29,3.1,3.29s3.07-1.19,3.07-3.29v-2.92h-6.17Z"/>
    <path d="M1060.05,369.75c4.6,0,7.56,2.59,7.56,6.6,0,3.12-1.85,5.5-4.66,6.04v-1.87c1.81-.53,2.97-2.16,2.97-4.17,0-2.86-2.31-4.72-5.88-4.72s-5.88,1.84-5.88,4.73c0,2.08.96,3.58,2.64,4.16v1.87c-2.78-.72-4.32-2.87-4.32-6.04,0-4.04,2.93-6.6,7.57-6.6Z"/>
    <path d="M1067.37,384.74v1.83h-5.43v3.58c0,2.76-1.91,4.71-4.62,4.71s-4.6-1.93-4.6-4.69v-5.43h14.64ZM1052.72,396.81h14.64v1.83h-14.64v-1.83ZM1054.37,389.69c0,2.1,1.07,3.29,2.95,3.29s2.97-1.2,2.97-3.29v-3.12h-5.93v3.12Z"/>
    <path d="M1052.72,411.55h6.67v-8.04h-6.67v-1.83h14.64v1.83h-6.33v8.04h6.33v1.83h-14.64v-1.83Z"/>
    <path d="M1060.04,429.36c-4.65,0-7.56-2.6-7.56-6.75s2.91-6.75,7.56-6.75,7.57,2.6,7.57,6.75-2.92,6.75-7.57,6.75ZM1060.04,417.74c-3.6,0-5.88,1.88-5.88,4.87s2.27,4.87,5.88,4.87,5.88-1.88,5.88-4.87-2.27-4.87-5.88-4.87Z"/>
    <path d="M1052.72,431.84h14.64v5.55c0,2.51-1.46,4.2-3.65,4.2-1.52,0-2.94-1.12-3.2-2.53h-.08c-.25,1.99-1.65,3.27-3.6,3.27-2.58,0-4.11-1.85-4.11-4.96v-5.53ZM1054.34,437.09c0,2.2.89,3.36,2.59,3.36s2.56-1.2,2.56-3.53v-3.26h-5.14v3.43ZM1061.05,433.66v2.74c0,2.16.86,3.34,2.45,3.34,1.45,0,2.25-.99,2.25-2.77v-3.31h-4.7Z"/>
    <path d="M1056.92,452.65v-5.82l-4.19-1.47v-1.92l14.64,5.4v1.81l-14.64,5.4v-1.92l4.19-1.47ZM1058.47,447.37v4.75l6.68-2.34v-.06l-6.68-2.34Z"/>
  </g>
  <g>
    <line class="cls-13" x1="1013.52" y1="297.33" x2="938.77" y2="297.33"/>
    <polygon class="cls-1" points="946.73 286.83 942.27 297.33 946.73 307.83 921.85 297.33 946.73 286.83"/>
  </g>
</svg>